{
  "header": {
    "keySignatures": [
      {
        "key": "G",
        "scale": "major",
        "ticks": 0
      }
    ],
    "meta": [],
    "name": "",
    "ppq": 960,
    "tempos": [
      {
        "bpm": 100,
        "ticks": 2880
      }
    ],
    "timeSignatures": [
      {
        "ticks": 0,
        "timeSignature": [
          4,
          4
        ],
        "measures": 0
      },
      {
        "ticks": 88320,
        "timeSignature": [
          5,
          4
        ],
        "measures": 23
      },
      {
        "ticks": 93120,
        "timeSignature": [
          4,
          4
        ],
        "measures": 24
      },
      {
        "ticks": 96960,
        "timeSignature": [
          6,
          4
        ],
        "measures": 25
      }
    ]
  },
  "tracks": [
    {
      "channel": 0,
      "controlChanges": {
        "7": [
          {
            "number": 7,
            "ticks": 2880,
            "time": 1.7999999999999998,
            "value": 0.7874015748031497
          },
          {
            "number": 7,
            "ticks": 2880,
            "time": 1.7999999999999998,
            "value": 0.7874015748031497
          }
        ],
        "10": [
          {
            "number": 10,
            "ticks": 2880,
            "time": 1.7999999999999998,
            "value": 0.4015748031496063
          },
          {
            "number": 10,
            "ticks": 2880,
            "time": 1.7999999999999998,
            "value": 0.4015748031496063
          }
        ],
        "64": [
          {
            "number": 64,
            "ticks": 2880,
            "time": 1.7999999999999998,
            "value": 0
          },
          {
            "number": 64,
            "ticks": 2880,
            "time": 1.7999999999999998,
            "value": 0
          }
        ],
        "91": [
          {
            "number": 91,
            "ticks": 2880,
            "time": 1.7999999999999998,
            "value": 0.3779527559055118
          },
          {
            "number": 91,
            "ticks": 2880,
            "time": 1.7999999999999998,
            "value": 0.3779527559055118
          }
        ],
        "121": [
          {
            "number": 121,
            "ticks": 2880,
            "time": 1.7999999999999998,
            "value": 0
          },
          {
            "number": 121,
            "ticks": 2880,
            "time": 1.7999999999999998,
            "value": 0
          }
        ]
      },
      "pitchBends": [],
      "instrument": {
        "family": "piano",
        "name": "acoustic grand piano",
        "number": 0
      },
      "name": "Piano",
      "notes": [
        {
          "duration": 0.45687500000000014,
          "durationTicks": 731,
          "midi": 59,
          "name": "B3",
          "ticks": 2880,
          "time": 1.7999999999999998,
          "velocity": 0.4409448818897638
        },
        {
          "duration": 0.1499999999999999,
          "durationTicks": 240,
          "midi": 71,
          "name": "B4",
          "ticks": 3600,
          "time": 2.25,
          "velocity": 0.5826771653543307
        },
        {
          "duration": 1.8349999999999995,
          "durationTicks": 2936,
          "midi": 71,
          "name": "B4",
          "ticks": 3840,
          "time": 2.4,
          "velocity": 0.5275590551181102
        },
        {
          "duration": 0.2999999999999998,
          "durationTicks": 480,
          "midi": 55,
          "name": "G3",
          "ticks": 3840,
          "time": 2.4,
          "velocity": 0.47244094488188976
        },
        {
          "duration": 0.2999999999999998,
          "durationTicks": 480,
          "midi": 59,
          "name": "B3",
          "ticks": 3840,
          "time": 2.4,
          "velocity": 0.47244094488188976
        },
        {
          "duration": 0.2999999999999998,
          "durationTicks": 480,
          "midi": 64,
          "name": "E4",
          "ticks": 3840,
          "time": 2.4,
          "velocity": 0.47244094488188976
        },
        {
          "duration": 0.30000000000000027,
          "durationTicks": 480,
          "midi": 55,
          "name": "G3",
          "ticks": 4320,
          "time": 2.6999999999999997,
          "velocity": 0.5039370078740157
        },
        {
          "duration": 0.30000000000000027,
          "durationTicks": 480,
          "midi": 59,
          "name": "B3",
          "ticks": 4320,
          "time": 2.6999999999999997,
          "velocity": 0.5039370078740157
        },
        {
          "duration": 0.30000000000000027,
          "durationTicks": 480,
          "midi": 64,
          "name": "E4",
          "ticks": 4320,
          "time": 2.6999999999999997,
          "velocity": 0.5039370078740157
        },
        {
          "duration": 0.2999999999999998,
          "durationTicks": 480,
          "midi": 55,
          "name": "G3",
          "ticks": 4800,
          "time": 3,
          "velocity": 0.4881889763779528
        },
        {
          "duration": 0.2999999999999998,
          "durationTicks": 480,
          "midi": 59,
          "name": "B3",
          "ticks": 4800,
          "time": 3,
          "velocity": 0.4881889763779528
        },
        {
          "duration": 0.2999999999999998,
          "durationTicks": 480,
          "midi": 64,
          "name": "E4",
          "ticks": 4800,
          "time": 3,
          "velocity": 0.4881889763779528
        },
        {
          "duration": 0.2999999999999998,
          "durationTicks": 480,
          "midi": 55,
          "name": "G3",
          "ticks": 5280,
          "time": 3.3,
          "velocity": 0.47244094488188976
        },
        {
          "duration": 0.2999999999999998,
          "durationTicks": 480,
          "midi": 59,
          "name": "B3",
          "ticks": 5280,
          "time": 3.3,
          "velocity": 0.47244094488188976
        },
        {
          "duration": 0.2999999999999998,
          "durationTicks": 480,
          "midi": 64,
          "name": "E4",
          "ticks": 5280,
          "time": 3.3,
          "velocity": 0.47244094488188976
        },
        {
          "duration": 0.30000000000000027,
          "durationTicks": 480,
          "midi": 55,
          "name": "G3",
          "ticks": 5760,
          "time": 3.5999999999999996,
          "velocity": 0.4645669291338583
        },
        {
          "duration": 0.30000000000000027,
          "durationTicks": 480,
          "midi": 59,
          "name": "B3",
          "ticks": 5760,
          "time": 3.5999999999999996,
          "velocity": 0.4645669291338583
        },
        {
          "duration": 0.30000000000000027,
          "durationTicks": 480,
          "midi": 64,
          "name": "E4",
          "ticks": 5760,
          "time": 3.5999999999999996,
          "velocity": 0.4645669291338583
        },
        {
          "duration": 0.2999999999999994,
          "durationTicks": 480,
          "midi": 55,
          "name": "G3",
          "ticks": 6240,
          "time": 3.9,
          "velocity": 0.4881889763779528
        },
        {
          "duration": 0.2999999999999994,
          "durationTicks": 480,
          "midi": 59,
          "name": "B3",
          "ticks": 6240,
          "time": 3.9,
          "velocity": 0.4881889763779528
        },
        {
          "duration": 0.2999999999999994,
          "durationTicks": 480,
          "midi": 64,
          "name": "E4",
          "ticks": 6240,
          "time": 3.9,
          "velocity": 0.4881889763779528
        },
        {
          "duration": 0.6118750000000004,
          "durationTicks": 979,
          "midi": 72,
          "name": "C5",
          "ticks": 6720,
          "time": 4.199999999999999,
          "velocity": 0.5354330708661418
        },
        {
          "duration": 0.3000000000000007,
          "durationTicks": 480,
          "midi": 55,
          "name": "G3",
          "ticks": 6720,
          "time": 4.199999999999999,
          "velocity": 0.4566929133858268
        },
        {
          "duration": 0.3000000000000007,
          "durationTicks": 480,
          "midi": 59,
          "name": "B3",
          "ticks": 6720,
          "time": 4.199999999999999,
          "velocity": 0.4566929133858268
        },
        {
          "duration": 0.3000000000000007,
          "durationTicks": 480,
          "midi": 64,
          "name": "E4",
          "ticks": 6720,
          "time": 4.199999999999999,
          "velocity": 0.4566929133858268
        },
        {
          "duration": 0.2999999999999998,
          "durationTicks": 480,
          "midi": 55,
          "name": "G3",
          "ticks": 7200,
          "time": 4.5,
          "velocity": 0.4881889763779528
        },
        {
          "duration": 0.2999999999999998,
          "durationTicks": 480,
          "midi": 59,
          "name": "B3",
          "ticks": 7200,
          "time": 4.5,
          "velocity": 0.4881889763779528
        },
        {
          "duration": 0.2999999999999998,
          "durationTicks": 480,
          "midi": 64,
          "name": "E4",
          "ticks": 7200,
          "time": 4.5,
          "velocity": 0.4881889763779528
        },
        {
          "duration": 1.835,
          "durationTicks": 2936,
          "midi": 71,
          "name": "B4",
          "ticks": 7680,
          "time": 4.8,
          "velocity": 0.4881889763779528
        },
        {
          "duration": 0.2999999999999998,
          "durationTicks": 480,
          "midi": 54,
          "name": "F#3",
          "ticks": 7680,
          "time": 4.8,
          "velocity": 0.4566929133858268
        },
        {
          "duration": 0.2999999999999998,
          "durationTicks": 480,
          "midi": 57,
          "name": "A3",
          "ticks": 7680,
          "time": 4.8,
          "velocity": 0.4566929133858268
        },
        {
          "duration": 0.2999999999999998,
          "durationTicks": 480,
          "midi": 64,
          "name": "E4",
          "ticks": 7680,
          "time": 4.8,
          "velocity": 0.4566929133858268
        },
        {
          "duration": 0.2999999999999998,
          "durationTicks": 480,
          "midi": 54,
          "name": "F#3",
          "ticks": 8160,
          "time": 5.1,
          "velocity": 0.48031496062992124
        },
        {
          "duration": 0.2999999999999998,
          "durationTicks": 480,
          "midi": 57,
          "name": "A3",
          "ticks": 8160,
          "time": 5.1,
          "velocity": 0.48031496062992124
        },
        {
          "duration": 0.2999999999999998,
          "durationTicks": 480,
          "midi": 64,
          "name": "E4",
          "ticks": 8160,
          "time": 5.1,
          "velocity": 0.48031496062992124
        },
        {
          "duration": 0.2999999999999998,
          "durationTicks": 480,
          "midi": 54,
          "name": "F#3",
          "ticks": 8640,
          "time": 5.3999999999999995,
          "velocity": 0.4645669291338583
        },
        {
          "duration": 0.2999999999999998,
          "durationTicks": 480,
          "midi": 57,
          "name": "A3",
          "ticks": 8640,
          "time": 5.3999999999999995,
          "velocity": 0.4645669291338583
        },
        {
          "duration": 0.2999999999999998,
          "durationTicks": 480,
          "midi": 64,
          "name": "E4",
          "ticks": 8640,
          "time": 5.3999999999999995,
          "velocity": 0.4645669291338583
        },
        {
          "duration": 0.3000000000000007,
          "durationTicks": 480,
          "midi": 54,
          "name": "F#3",
          "ticks": 9120,
          "time": 5.699999999999999,
          "velocity": 0.4566929133858268
        },
        {
          "duration": 0.3000000000000007,
          "durationTicks": 480,
          "midi": 57,
          "name": "A3",
          "ticks": 9120,
          "time": 5.699999999999999,
          "velocity": 0.4566929133858268
        },
        {
          "duration": 0.3000000000000007,
          "durationTicks": 480,
          "midi": 64,
          "name": "E4",
          "ticks": 9120,
          "time": 5.699999999999999,
          "velocity": 0.4566929133858268
        },
        {
          "duration": 0.2999999999999998,
          "durationTicks": 480,
          "midi": 54,
          "name": "F#3",
          "ticks": 9600,
          "time": 6,
          "velocity": 0.48031496062992124
        },
        {
          "duration": 0.2999999999999998,
          "durationTicks": 480,
          "midi": 57,
          "name": "A3",
          "ticks": 9600,
          "time": 6,
          "velocity": 0.48031496062992124
        },
        {
          "duration": 0.2999999999999998,
          "durationTicks": 480,
          "midi": 63,
          "name": "D#4",
          "ticks": 9600,
          "time": 6,
          "velocity": 0.48031496062992124
        },
        {
          "duration": 0.2999999999999998,
          "durationTicks": 480,
          "midi": 54,
          "name": "F#3",
          "ticks": 10080,
          "time": 6.3,
          "velocity": 0.4645669291338583
        },
        {
          "duration": 0.2999999999999998,
          "durationTicks": 480,
          "midi": 57,
          "name": "A3",
          "ticks": 10080,
          "time": 6.3,
          "velocity": 0.4645669291338583
        },
        {
          "duration": 0.2999999999999998,
          "durationTicks": 480,
          "midi": 63,
          "name": "D#4",
          "ticks": 10080,
          "time": 6.3,
          "velocity": 0.4645669291338583
        },
        {
          "duration": 0.6118749999999995,
          "durationTicks": 979,
          "midi": 72,
          "name": "C5",
          "ticks": 10560,
          "time": 6.6,
          "velocity": 0.5196850393700787
        },
        {
          "duration": 0.2999999999999998,
          "durationTicks": 480,
          "midi": 54,
          "name": "F#3",
          "ticks": 10560,
          "time": 6.6,
          "velocity": 0.4566929133858268
        },
        {
          "duration": 0.2999999999999998,
          "durationTicks": 480,
          "midi": 57,
          "name": "A3",
          "ticks": 10560,
          "time": 6.6,
          "velocity": 0.4566929133858268
        },
        {
          "duration": 0.2999999999999998,
          "durationTicks": 480,
          "midi": 63,
          "name": "D#4",
          "ticks": 10560,
          "time": 6.6,
          "velocity": 0.4566929133858268
        },
        {
          "duration": 0.2999999999999998,
          "durationTicks": 480,
          "midi": 54,
          "name": "F#3",
          "ticks": 11040,
          "time": 6.8999999999999995,
          "velocity": 0.4251968503937008
        },
        {
          "duration": 0.2999999999999998,
          "durationTicks": 480,
          "midi": 57,
          "name": "A3",
          "ticks": 11040,
          "time": 6.8999999999999995,
          "velocity": 0.4251968503937008
        },
        {
          "duration": 0.2999999999999998,
          "durationTicks": 480,
          "midi": 63,
          "name": "D#4",
          "ticks": 11040,
          "time": 6.8999999999999995,
          "velocity": 0.4251968503937008
        },
        {
          "duration": 1.8350000000000009,
          "durationTicks": 2936,
          "midi": 71,
          "name": "B4",
          "ticks": 11520,
          "time": 7.199999999999999,
          "velocity": 0.4645669291338583
        },
        {
          "duration": 0.3000000000000007,
          "durationTicks": 480,
          "midi": 53,
          "name": "F3",
          "ticks": 11520,
          "time": 7.199999999999999,
          "velocity": 0.49606299212598426
        },
        {
          "duration": 0.3000000000000007,
          "durationTicks": 480,
          "midi": 57,
          "name": "A3",
          "ticks": 11520,
          "time": 7.199999999999999,
          "velocity": 0.49606299212598426
        },
        {
          "duration": 0.3000000000000007,
          "durationTicks": 480,
          "midi": 63,
          "name": "D#4",
          "ticks": 11520,
          "time": 7.199999999999999,
          "velocity": 0.49606299212598426
        },
        {
          "duration": 0.2999999999999998,
          "durationTicks": 480,
          "midi": 53,
          "name": "F3",
          "ticks": 12000,
          "time": 7.5,
          "velocity": 0.48031496062992124
        },
        {
          "duration": 0.2999999999999998,
          "durationTicks": 480,
          "midi": 57,
          "name": "A3",
          "ticks": 12000,
          "time": 7.5,
          "velocity": 0.48031496062992124
        },
        {
          "duration": 0.2999999999999998,
          "durationTicks": 480,
          "midi": 63,
          "name": "D#4",
          "ticks": 12000,
          "time": 7.5,
          "velocity": 0.48031496062992124
        },
        {
          "duration": 0.2999999999999998,
          "durationTicks": 480,
          "midi": 53,
          "name": "F3",
          "ticks": 12480,
          "time": 7.8,
          "velocity": 0.47244094488188976
        },
        {
          "duration": 0.2999999999999998,
          "durationTicks": 480,
          "midi": 57,
          "name": "A3",
          "ticks": 12480,
          "time": 7.8,
          "velocity": 0.47244094488188976
        },
        {
          "duration": 0.2999999999999998,
          "durationTicks": 480,
          "midi": 63,
          "name": "D#4",
          "ticks": 12480,
          "time": 7.8,
          "velocity": 0.47244094488188976
        },
        {
          "duration": 0.29999999999999893,
          "durationTicks": 480,
          "midi": 53,
          "name": "F3",
          "ticks": 12960,
          "time": 8.1,
          "velocity": 0.4881889763779528
        },
        {
          "duration": 0.29999999999999893,
          "durationTicks": 480,
          "midi": 57,
          "name": "A3",
          "ticks": 12960,
          "time": 8.1,
          "velocity": 0.4881889763779528
        },
        {
          "duration": 0.29999999999999893,
          "durationTicks": 480,
          "midi": 63,
          "name": "D#4",
          "ticks": 12960,
          "time": 8.1,
          "velocity": 0.4881889763779528
        },
        {
          "duration": 0.3000000000000007,
          "durationTicks": 480,
          "midi": 53,
          "name": "F3",
          "ticks": 13440,
          "time": 8.399999999999999,
          "velocity": 0.44881889763779526
        },
        {
          "duration": 0.3000000000000007,
          "durationTicks": 480,
          "midi": 57,
          "name": "A3",
          "ticks": 13440,
          "time": 8.399999999999999,
          "velocity": 0.44881889763779526
        },
        {
          "duration": 0.3000000000000007,
          "durationTicks": 480,
          "midi": 62,
          "name": "D4",
          "ticks": 13440,
          "time": 8.399999999999999,
          "velocity": 0.44881889763779526
        },
        {
          "duration": 0.3000000000000007,
          "durationTicks": 480,
          "midi": 53,
          "name": "F3",
          "ticks": 13920,
          "time": 8.7,
          "velocity": 0.4881889763779528
        },
        {
          "duration": 0.3000000000000007,
          "durationTicks": 480,
          "midi": 57,
          "name": "A3",
          "ticks": 13920,
          "time": 8.7,
          "velocity": 0.4881889763779528
        },
        {
          "duration": 0.3000000000000007,
          "durationTicks": 480,
          "midi": 62,
          "name": "D4",
          "ticks": 13920,
          "time": 8.7,
          "velocity": 0.4881889763779528
        },
        {
          "duration": 0.6118749999999995,
          "durationTicks": 979,
          "midi": 72,
          "name": "C5",
          "ticks": 14400,
          "time": 9,
          "velocity": 0.5039370078740157
        },
        {
          "duration": 0.3000000000000007,
          "durationTicks": 480,
          "midi": 53,
          "name": "F3",
          "ticks": 14400,
          "time": 9,
          "velocity": 0.49606299212598426
        },
        {
          "duration": 0.3000000000000007,
          "durationTicks": 480,
          "midi": 56,
          "name": "G#3",
          "ticks": 14400,
          "time": 9,
          "velocity": 0.49606299212598426
        },
        {
          "duration": 0.3000000000000007,
          "durationTicks": 480,
          "midi": 62,
          "name": "D4",
          "ticks": 14400,
          "time": 9,
          "velocity": 0.49606299212598426
        },
        {
          "duration": 0.29999999999999893,
          "durationTicks": 480,
          "midi": 53,
          "name": "F3",
          "ticks": 14880,
          "time": 9.3,
          "velocity": 0.47244094488188976
        },
        {
          "duration": 0.29999999999999893,
          "durationTicks": 480,
          "midi": 56,
          "name": "G#3",
          "ticks": 14880,
          "time": 9.3,
          "velocity": 0.47244094488188976
        },
        {
          "duration": 0.29999999999999893,
          "durationTicks": 480,
          "midi": 62,
          "name": "D4",
          "ticks": 14880,
          "time": 9.3,
          "velocity": 0.47244094488188976
        },
        {
          "duration": 1.834999999999999,
          "durationTicks": 2936,
          "midi": 71,
          "name": "B4",
          "ticks": 15360,
          "time": 9.6,
          "velocity": 0.44881889763779526
        },
        {
          "duration": 0.29999999999999893,
          "durationTicks": 480,
          "midi": 52,
          "name": "E3",
          "ticks": 15360,
          "time": 9.6,
          "velocity": 0.5275590551181102
        },
        {
          "duration": 0.29999999999999893,
          "durationTicks": 480,
          "midi": 56,
          "name": "G#3",
          "ticks": 15360,
          "time": 9.6,
          "velocity": 0.5275590551181102
        },
        {
          "duration": 0.29999999999999893,
          "durationTicks": 480,
          "midi": 62,
          "name": "D4",
          "ticks": 15360,
          "time": 9.6,
          "velocity": 0.5275590551181102
        },
        {
          "duration": 0.3000000000000007,
          "durationTicks": 480,
          "midi": 52,
          "name": "E3",
          "ticks": 15840,
          "time": 9.899999999999999,
          "velocity": 0.44881889763779526
        },
        {
          "duration": 0.3000000000000007,
          "durationTicks": 480,
          "midi": 56,
          "name": "G#3",
          "ticks": 15840,
          "time": 9.899999999999999,
          "velocity": 0.44881889763779526
        },
        {
          "duration": 0.3000000000000007,
          "durationTicks": 480,
          "midi": 62,
          "name": "D4",
          "ticks": 15840,
          "time": 9.899999999999999,
          "velocity": 0.44881889763779526
        },
        {
          "duration": 0.3000000000000007,
          "durationTicks": 480,
          "midi": 52,
          "name": "E3",
          "ticks": 16320,
          "time": 10.2,
          "velocity": 0.48031496062992124
        },
        {
          "duration": 0.3000000000000007,
          "durationTicks": 480,
          "midi": 56,
          "name": "G#3",
          "ticks": 16320,
          "time": 10.2,
          "velocity": 0.48031496062992124
        },
        {
          "duration": 0.3000000000000007,
          "durationTicks": 480,
          "midi": 62,
          "name": "D4",
          "ticks": 16320,
          "time": 10.2,
          "velocity": 0.48031496062992124
        },
        {
          "duration": 0.3000000000000007,
          "durationTicks": 480,
          "midi": 52,
          "name": "E3",
          "ticks": 16800,
          "time": 10.5,
          "velocity": 0.5118110236220472
        },
        {
          "duration": 0.3000000000000007,
          "durationTicks": 480,
          "midi": 56,
          "name": "G#3",
          "ticks": 16800,
          "time": 10.5,
          "velocity": 0.5118110236220472
        },
        {
          "duration": 0.3000000000000007,
          "durationTicks": 480,
          "midi": 62,
          "name": "D4",
          "ticks": 16800,
          "time": 10.5,
          "velocity": 0.5118110236220472
        },
        {
          "duration": 0.29999999999999716,
          "durationTicks": 480,
          "midi": 52,
          "name": "E3",
          "ticks": 17280,
          "time": 10.8,
          "velocity": 0.49606299212598426
        },
        {
          "duration": 0.29999999999999716,
          "durationTicks": 480,
          "midi": 55,
          "name": "G3",
          "ticks": 17280,
          "time": 10.8,
          "velocity": 0.49606299212598426
        },
        {
          "duration": 0.29999999999999716,
          "durationTicks": 480,
          "midi": 62,
          "name": "D4",
          "ticks": 17280,
          "time": 10.8,
          "velocity": 0.49606299212598426
        },
        {
          "duration": 0.3000000000000007,
          "durationTicks": 480,
          "midi": 52,
          "name": "E3",
          "ticks": 17760,
          "time": 11.099999999999998,
          "velocity": 0.44881889763779526
        },
        {
          "duration": 0.3000000000000007,
          "durationTicks": 480,
          "midi": 55,
          "name": "G3",
          "ticks": 17760,
          "time": 11.099999999999998,
          "velocity": 0.44881889763779526
        },
        {
          "duration": 0.3000000000000007,
          "durationTicks": 480,
          "midi": 62,
          "name": "D4",
          "ticks": 17760,
          "time": 11.099999999999998,
          "velocity": 0.44881889763779526
        },
        {
          "duration": 0.6118750000000013,
          "durationTicks": 979,
          "midi": 70,
          "name": "A#4",
          "ticks": 18240,
          "time": 11.399999999999999,
          "velocity": 0.4409448818897638
        },
        {
          "duration": 0.3000000000000007,
          "durationTicks": 480,
          "midi": 52,
          "name": "E3",
          "ticks": 18240,
          "time": 11.399999999999999,
          "velocity": 0.4645669291338583
        },
        {
          "duration": 0.3000000000000007,
          "durationTicks": 480,
          "midi": 55,
          "name": "G3",
          "ticks": 18240,
          "time": 11.399999999999999,
          "velocity": 0.4645669291338583
        },
        {
          "duration": 0.3000000000000007,
          "durationTicks": 480,
          "midi": 61,
          "name": "C#4",
          "ticks": 18240,
          "time": 11.399999999999999,
          "velocity": 0.4645669291338583
        },
        {
          "duration": 0.3000000000000007,
          "durationTicks": 480,
          "midi": 52,
          "name": "E3",
          "ticks": 18720,
          "time": 11.7,
          "velocity": 0.48031496062992124
        },
        {
          "duration": 0.3000000000000007,
          "durationTicks": 480,
          "midi": 55,
          "name": "G3",
          "ticks": 18720,
          "time": 11.7,
          "velocity": 0.48031496062992124
        },
        {
          "duration": 0.3000000000000007,
          "durationTicks": 480,
          "midi": 61,
          "name": "C#4",
          "ticks": 18720,
          "time": 11.7,
          "velocity": 0.48031496062992124
        },
        {
          "duration": 1.8350000000000009,
          "durationTicks": 2936,
          "midi": 69,
          "name": "A4",
          "ticks": 19200,
          "time": 12,
          "velocity": 0.44881889763779526
        },
        {
          "duration": 0.3000000000000007,
          "durationTicks": 480,
          "midi": 52,
          "name": "E3",
          "ticks": 19200,
          "time": 12,
          "velocity": 0.4409448818897638
        },
        {
          "duration": 0.3000000000000007,
          "durationTicks": 480,
          "midi": 55,
          "name": "G3",
          "ticks": 19200,
          "time": 12,
          "velocity": 0.4409448818897638
        },
        {
          "duration": 0.3000000000000007,
          "durationTicks": 480,
          "midi": 60,
          "name": "C4",
          "ticks": 19200,
          "time": 12,
          "velocity": 0.4409448818897638
        },
        {
          "duration": 0.29999999999999716,
          "durationTicks": 480,
          "midi": 52,
          "name": "E3",
          "ticks": 19680,
          "time": 12.3,
          "velocity": 0.49606299212598426
        },
        {
          "duration": 0.29999999999999716,
          "durationTicks": 480,
          "midi": 55,
          "name": "G3",
          "ticks": 19680,
          "time": 12.3,
          "velocity": 0.49606299212598426
        },
        {
          "duration": 0.29999999999999716,
          "durationTicks": 480,
          "midi": 60,
          "name": "C4",
          "ticks": 19680,
          "time": 12.3,
          "velocity": 0.49606299212598426
        },
        {
          "duration": 0.3000000000000007,
          "durationTicks": 480,
          "midi": 52,
          "name": "E3",
          "ticks": 20160,
          "time": 12.599999999999998,
          "velocity": 0.49606299212598426
        },
        {
          "duration": 0.3000000000000007,
          "durationTicks": 480,
          "midi": 55,
          "name": "G3",
          "ticks": 20160,
          "time": 12.599999999999998,
          "velocity": 0.49606299212598426
        },
        {
          "duration": 0.3000000000000007,
          "durationTicks": 480,
          "midi": 60,
          "name": "C4",
          "ticks": 20160,
          "time": 12.599999999999998,
          "velocity": 0.49606299212598426
        },
        {
          "duration": 0.3000000000000007,
          "durationTicks": 480,
          "midi": 52,
          "name": "E3",
          "ticks": 20640,
          "time": 12.899999999999999,
          "velocity": 0.5039370078740157
        },
        {
          "duration": 0.3000000000000007,
          "durationTicks": 480,
          "midi": 55,
          "name": "G3",
          "ticks": 20640,
          "time": 12.899999999999999,
          "velocity": 0.5039370078740157
        },
        {
          "duration": 0.3000000000000007,
          "durationTicks": 480,
          "midi": 60,
          "name": "C4",
          "ticks": 20640,
          "time": 12.899999999999999,
          "velocity": 0.5039370078740157
        },
        {
          "duration": 0.3000000000000007,
          "durationTicks": 480,
          "midi": 52,
          "name": "E3",
          "ticks": 21120,
          "time": 13.2,
          "velocity": 0.5118110236220472
        },
        {
          "duration": 0.3000000000000007,
          "durationTicks": 480,
          "midi": 54,
          "name": "F#3",
          "ticks": 21120,
          "time": 13.2,
          "velocity": 0.5118110236220472
        },
        {
          "duration": 0.3000000000000007,
          "durationTicks": 480,
          "midi": 60,
          "name": "C4",
          "ticks": 21120,
          "time": 13.2,
          "velocity": 0.5118110236220472
        },
        {
          "duration": 0.3000000000000007,
          "durationTicks": 480,
          "midi": 52,
          "name": "E3",
          "ticks": 21600,
          "time": 13.5,
          "velocity": 0.48031496062992124
        },
        {
          "duration": 0.3000000000000007,
          "durationTicks": 480,
          "midi": 54,
          "name": "F#3",
          "ticks": 21600,
          "time": 13.5,
          "velocity": 0.48031496062992124
        },
        {
          "duration": 0.3000000000000007,
          "durationTicks": 480,
          "midi": 60,
          "name": "C4",
          "ticks": 21600,
          "time": 13.5,
          "velocity": 0.48031496062992124
        },
        {
          "duration": 0.6118749999999977,
          "durationTicks": 979,
          "midi": 71,
          "name": "B4",
          "ticks": 22080,
          "time": 13.8,
          "velocity": 0.48031496062992124
        },
        {
          "duration": 0.29999999999999716,
          "durationTicks": 480,
          "midi": 52,
          "name": "E3",
          "ticks": 22080,
          "time": 13.8,
          "velocity": 0.4881889763779528
        },
        {
          "duration": 0.29999999999999716,
          "durationTicks": 480,
          "midi": 54,
          "name": "F#3",
          "ticks": 22080,
          "time": 13.8,
          "velocity": 0.4881889763779528
        },
        {
          "duration": 0.29999999999999716,
          "durationTicks": 480,
          "midi": 60,
          "name": "C4",
          "ticks": 22080,
          "time": 13.8,
          "velocity": 0.4881889763779528
        },
        {
          "duration": 0.3000000000000007,
          "durationTicks": 480,
          "midi": 52,
          "name": "E3",
          "ticks": 22560,
          "time": 14.099999999999998,
          "velocity": 0.48031496062992124
        },
        {
          "duration": 0.3000000000000007,
          "durationTicks": 480,
          "midi": 54,
          "name": "F#3",
          "ticks": 22560,
          "time": 14.099999999999998,
          "velocity": 0.48031496062992124
        },
        {
          "duration": 0.3000000000000007,
          "durationTicks": 480,
          "midi": 60,
          "name": "C4",
          "ticks": 22560,
          "time": 14.099999999999998,
          "velocity": 0.48031496062992124
        },
        {
          "duration": 1.8350000000000009,
          "durationTicks": 2936,
          "midi": 69,
          "name": "A4",
          "ticks": 23040,
          "time": 14.399999999999999,
          "velocity": 0.44881889763779526
        },
        {
          "duration": 0.3000000000000007,
          "durationTicks": 480,
          "midi": 52,
          "name": "E3",
          "ticks": 23040,
          "time": 14.399999999999999,
          "velocity": 0.4881889763779528
        },
        {
          "duration": 0.3000000000000007,
          "durationTicks": 480,
          "midi": 54,
          "name": "F#3",
          "ticks": 23040,
          "time": 14.399999999999999,
          "velocity": 0.4881889763779528
        },
        {
          "duration": 0.3000000000000007,
          "durationTicks": 480,
          "midi": 60,
          "name": "C4",
          "ticks": 23040,
          "time": 14.399999999999999,
          "velocity": 0.4881889763779528
        },
        {
          "duration": 0.3000000000000007,
          "durationTicks": 480,
          "midi": 52,
          "name": "E3",
          "ticks": 23520,
          "time": 14.7,
          "velocity": 0.44881889763779526
        },
        {
          "duration": 0.3000000000000007,
          "durationTicks": 480,
          "midi": 54,
          "name": "F#3",
          "ticks": 23520,
          "time": 14.7,
          "velocity": 0.44881889763779526
        },
        {
          "duration": 0.3000000000000007,
          "durationTicks": 480,
          "midi": 60,
          "name": "C4",
          "ticks": 23520,
          "time": 14.7,
          "velocity": 0.44881889763779526
        },
        {
          "duration": 0.3000000000000007,
          "durationTicks": 480,
          "midi": 52,
          "name": "E3",
          "ticks": 24000,
          "time": 15,
          "velocity": 0.4409448818897638
        },
        {
          "duration": 0.3000000000000007,
          "durationTicks": 480,
          "midi": 54,
          "name": "F#3",
          "ticks": 24000,
          "time": 15,
          "velocity": 0.4409448818897638
        },
        {
          "duration": 0.3000000000000007,
          "durationTicks": 480,
          "midi": 60,
          "name": "C4",
          "ticks": 24000,
          "time": 15,
          "velocity": 0.4409448818897638
        },
        {
          "duration": 0.29999999999999716,
          "durationTicks": 480,
          "midi": 52,
          "name": "E3",
          "ticks": 24480,
          "time": 15.3,
          "velocity": 0.4645669291338583
        },
        {
          "duration": 0.29999999999999716,
          "durationTicks": 480,
          "midi": 54,
          "name": "F#3",
          "ticks": 24480,
          "time": 15.3,
          "velocity": 0.4645669291338583
        },
        {
          "duration": 0.29999999999999716,
          "durationTicks": 480,
          "midi": 60,
          "name": "C4",
          "ticks": 24480,
          "time": 15.3,
          "velocity": 0.4645669291338583
        },
        {
          "duration": 0.3000000000000007,
          "durationTicks": 480,
          "midi": 51,
          "name": "D#3",
          "ticks": 24960,
          "time": 15.599999999999998,
          "velocity": 0.47244094488188976
        },
        {
          "duration": 0.3000000000000007,
          "durationTicks": 480,
          "midi": 54,
          "name": "F#3",
          "ticks": 24960,
          "time": 15.599999999999998,
          "velocity": 0.47244094488188976
        },
        {
          "duration": 0.3000000000000007,
          "durationTicks": 480,
          "midi": 60,
          "name": "C4",
          "ticks": 24960,
          "time": 15.599999999999998,
          "velocity": 0.47244094488188976
        },
        {
          "duration": 0.3000000000000007,
          "durationTicks": 480,
          "midi": 51,
          "name": "D#3",
          "ticks": 25440,
          "time": 15.899999999999999,
          "velocity": 0.4566929133858268
        },
        {
          "duration": 0.3000000000000007,
          "durationTicks": 480,
          "midi": 54,
          "name": "F#3",
          "ticks": 25440,
          "time": 15.899999999999999,
          "velocity": 0.4566929133858268
        },
        {
          "duration": 0.3000000000000007,
          "durationTicks": 480,
          "midi": 60,
          "name": "C4",
          "ticks": 25440,
          "time": 15.899999999999999,
          "velocity": 0.4566929133858268
        },
        {
          "duration": 0.6118750000000013,
          "durationTicks": 979,
          "midi": 71,
          "name": "B4",
          "ticks": 25920,
          "time": 16.2,
          "velocity": 0.4881889763779528
        },
        {
          "duration": 0.3000000000000007,
          "durationTicks": 480,
          "midi": 51,
          "name": "D#3",
          "ticks": 25920,
          "time": 16.2,
          "velocity": 0.4409448818897638
        },
        {
          "duration": 0.3000000000000007,
          "durationTicks": 480,
          "midi": 54,
          "name": "F#3",
          "ticks": 25920,
          "time": 16.2,
          "velocity": 0.4409448818897638
        },
        {
          "duration": 0.3000000000000007,
          "durationTicks": 480,
          "midi": 60,
          "name": "C4",
          "ticks": 25920,
          "time": 16.2,
          "velocity": 0.4409448818897638
        },
        {
          "duration": 0.3000000000000007,
          "durationTicks": 480,
          "midi": 51,
          "name": "D#3",
          "ticks": 26400,
          "time": 16.5,
          "velocity": 0.5039370078740157
        },
        {
          "duration": 0.3000000000000007,
          "durationTicks": 480,
          "midi": 54,
          "name": "F#3",
          "ticks": 26400,
          "time": 16.5,
          "velocity": 0.5039370078740157
        },
        {
          "duration": 0.3000000000000007,
          "durationTicks": 480,
          "midi": 60,
          "name": "C4",
          "ticks": 26400,
          "time": 16.5,
          "velocity": 0.5039370078740157
        },
        {
          "duration": 1.8350000000000009,
          "durationTicks": 2936,
          "midi": 69,
          "name": "A4",
          "ticks": 26880,
          "time": 16.8,
          "velocity": 0.4330708661417323
        },
        {
          "duration": 0.29999999999999716,
          "durationTicks": 480,
          "midi": 50,
          "name": "D3",
          "ticks": 26880,
          "time": 16.8,
          "velocity": 0.48031496062992124
        },
        {
          "duration": 0.29999999999999716,
          "durationTicks": 480,
          "midi": 54,
          "name": "F#3",
          "ticks": 26880,
          "time": 16.8,
          "velocity": 0.48031496062992124
        },
        {
          "duration": 0.29999999999999716,
          "durationTicks": 480,
          "midi": 60,
          "name": "C4",
          "ticks": 26880,
          "time": 16.8,
          "velocity": 0.48031496062992124
        },
        {
          "duration": 0.3000000000000007,
          "durationTicks": 480,
          "midi": 50,
          "name": "D3",
          "ticks": 27360,
          "time": 17.099999999999998,
          "velocity": 0.49606299212598426
        },
        {
          "duration": 0.3000000000000007,
          "durationTicks": 480,
          "midi": 54,
          "name": "F#3",
          "ticks": 27360,
          "time": 17.099999999999998,
          "velocity": 0.49606299212598426
        },
        {
          "duration": 0.3000000000000007,
          "durationTicks": 480,
          "midi": 60,
          "name": "C4",
          "ticks": 27360,
          "time": 17.099999999999998,
          "velocity": 0.49606299212598426
        },
        {
          "duration": 0.3000000000000007,
          "durationTicks": 480,
          "midi": 50,
          "name": "D3",
          "ticks": 27840,
          "time": 17.4,
          "velocity": 0.48031496062992124
        },
        {
          "duration": 0.3000000000000007,
          "durationTicks": 480,
          "midi": 54,
          "name": "F#3",
          "ticks": 27840,
          "time": 17.4,
          "velocity": 0.48031496062992124
        },
        {
          "duration": 0.3000000000000007,
          "durationTicks": 480,
          "midi": 60,
          "name": "C4",
          "ticks": 27840,
          "time": 17.4,
          "velocity": 0.48031496062992124
        },
        {
          "duration": 0.3000000000000007,
          "durationTicks": 480,
          "midi": 50,
          "name": "D3",
          "ticks": 28320,
          "time": 17.7,
          "velocity": 0.4881889763779528
        },
        {
          "duration": 0.3000000000000007,
          "durationTicks": 480,
          "midi": 54,
          "name": "F#3",
          "ticks": 28320,
          "time": 17.7,
          "velocity": 0.4881889763779528
        },
        {
          "duration": 0.3000000000000007,
          "durationTicks": 480,
          "midi": 60,
          "name": "C4",
          "ticks": 28320,
          "time": 17.7,
          "velocity": 0.4881889763779528
        },
        {
          "duration": 0.3000000000000007,
          "durationTicks": 480,
          "midi": 50,
          "name": "D3",
          "ticks": 28800,
          "time": 18,
          "velocity": 0.49606299212598426
        },
        {
          "duration": 0.3000000000000007,
          "durationTicks": 480,
          "midi": 54,
          "name": "F#3",
          "ticks": 28800,
          "time": 18,
          "velocity": 0.49606299212598426
        },
        {
          "duration": 0.3000000000000007,
          "durationTicks": 480,
          "midi": 60,
          "name": "C4",
          "ticks": 28800,
          "time": 18,
          "velocity": 0.49606299212598426
        },
        {
          "duration": 0.3000000000000007,
          "durationTicks": 480,
          "midi": 50,
          "name": "D3",
          "ticks": 29280,
          "time": 18.3,
          "velocity": 0.4881889763779528
        },
        {
          "duration": 0.3000000000000007,
          "durationTicks": 480,
          "midi": 54,
          "name": "F#3",
          "ticks": 29280,
          "time": 18.3,
          "velocity": 0.4881889763779528
        },
        {
          "duration": 0.3000000000000007,
          "durationTicks": 480,
          "midi": 60,
          "name": "C4",
          "ticks": 29280,
          "time": 18.3,
          "velocity": 0.4881889763779528
        },
        {
          "duration": 0.45687500000000014,
          "durationTicks": 731,
          "midi": 71,
          "name": "B4",
          "ticks": 29760,
          "time": 18.6,
          "velocity": 0.5039370078740157
        },
        {
          "duration": 0.29999999999999716,
          "durationTicks": 480,
          "midi": 50,
          "name": "D3",
          "ticks": 29760,
          "time": 18.6,
          "velocity": 0.47244094488188976
        },
        {
          "duration": 0.29999999999999716,
          "durationTicks": 480,
          "midi": 54,
          "name": "F#3",
          "ticks": 29760,
          "time": 18.6,
          "velocity": 0.47244094488188976
        },
        {
          "duration": 0.29999999999999716,
          "durationTicks": 480,
          "midi": 60,
          "name": "C4",
          "ticks": 29760,
          "time": 18.6,
          "velocity": 0.47244094488188976
        },
        {
          "duration": 0.3000000000000007,
          "durationTicks": 480,
          "midi": 50,
          "name": "D3",
          "ticks": 30240,
          "time": 18.9,
          "velocity": 0.5275590551181102
        },
        {
          "duration": 0.3000000000000007,
          "durationTicks": 480,
          "midi": 54,
          "name": "F#3",
          "ticks": 30240,
          "time": 18.9,
          "velocity": 0.5275590551181102
        },
        {
          "duration": 0.3000000000000007,
          "durationTicks": 480,
          "midi": 60,
          "name": "C4",
          "ticks": 30240,
          "time": 18.9,
          "velocity": 0.5275590551181102
        },
        {
          "duration": 0.14999999999999858,
          "durationTicks": 240,
          "midi": 69,
          "name": "A4",
          "ticks": 30480,
          "time": 19.05,
          "velocity": 0.4881889763779528
        },
        {
          "duration": 1.8349999999999973,
          "durationTicks": 2936,
          "midi": 69,
          "name": "A4",
          "ticks": 30720,
          "time": 19.2,
          "velocity": 0.6535433070866141
        },
        {
          "duration": 0.3000000000000007,
          "durationTicks": 480,
          "midi": 50,
          "name": "D3",
          "ticks": 30720,
          "time": 19.2,
          "velocity": 0.5433070866141733
        },
        {
          "duration": 0.3000000000000007,
          "durationTicks": 480,
          "midi": 53,
          "name": "F3",
          "ticks": 30720,
          "time": 19.2,
          "velocity": 0.5433070866141733
        },
        {
          "duration": 0.3000000000000007,
          "durationTicks": 480,
          "midi": 60,
          "name": "C4",
          "ticks": 30720,
          "time": 19.2,
          "velocity": 0.5433070866141733
        },
        {
          "duration": 0.3000000000000007,
          "durationTicks": 480,
          "midi": 50,
          "name": "D3",
          "ticks": 31200,
          "time": 19.5,
          "velocity": 0.5590551181102362
        },
        {
          "duration": 0.3000000000000007,
          "durationTicks": 480,
          "midi": 53,
          "name": "F3",
          "ticks": 31200,
          "time": 19.5,
          "velocity": 0.5590551181102362
        },
        {
          "duration": 0.3000000000000007,
          "durationTicks": 480,
          "midi": 60,
          "name": "C4",
          "ticks": 31200,
          "time": 19.5,
          "velocity": 0.5590551181102362
        },
        {
          "duration": 0.3000000000000007,
          "durationTicks": 480,
          "midi": 50,
          "name": "D3",
          "ticks": 31680,
          "time": 19.8,
          "velocity": 0.5984251968503937
        },
        {
          "duration": 0.3000000000000007,
          "durationTicks": 480,
          "midi": 53,
          "name": "F3",
          "ticks": 31680,
          "time": 19.8,
          "velocity": 0.5984251968503937
        },
        {
          "duration": 0.3000000000000007,
          "durationTicks": 480,
          "midi": 60,
          "name": "C4",
          "ticks": 31680,
          "time": 19.8,
          "velocity": 0.5984251968503937
        },
        {
          "duration": 0.29999999999999716,
          "durationTicks": 480,
          "midi": 50,
          "name": "D3",
          "ticks": 32160,
          "time": 20.1,
          "velocity": 0.5118110236220472
        },
        {
          "duration": 0.29999999999999716,
          "durationTicks": 480,
          "midi": 53,
          "name": "F3",
          "ticks": 32160,
          "time": 20.1,
          "velocity": 0.5118110236220472
        },
        {
          "duration": 0.29999999999999716,
          "durationTicks": 480,
          "midi": 60,
          "name": "C4",
          "ticks": 32160,
          "time": 20.1,
          "velocity": 0.5118110236220472
        },
        {
          "duration": 0.3000000000000007,
          "durationTicks": 480,
          "midi": 50,
          "name": "D3",
          "ticks": 32640,
          "time": 20.4,
          "velocity": 0.5433070866141733
        },
        {
          "duration": 0.3000000000000007,
          "durationTicks": 480,
          "midi": 53,
          "name": "F3",
          "ticks": 32640,
          "time": 20.4,
          "velocity": 0.5433070866141733
        },
        {
          "duration": 0.3000000000000007,
          "durationTicks": 480,
          "midi": 59,
          "name": "B3",
          "ticks": 32640,
          "time": 20.4,
          "velocity": 0.5433070866141733
        },
        {
          "duration": 0.3000000000000007,
          "durationTicks": 480,
          "midi": 50,
          "name": "D3",
          "ticks": 33120,
          "time": 20.7,
          "velocity": 0.5511811023622047
        },
        {
          "duration": 0.3000000000000007,
          "durationTicks": 480,
          "midi": 53,
          "name": "F3",
          "ticks": 33120,
          "time": 20.7,
          "velocity": 0.5511811023622047
        },
        {
          "duration": 0.3000000000000007,
          "durationTicks": 480,
          "midi": 59,
          "name": "B3",
          "ticks": 33120,
          "time": 20.7,
          "velocity": 0.5511811023622047
        },
        {
          "duration": 1.223749999999999,
          "durationTicks": 1958,
          "midi": 68,
          "name": "G#4",
          "ticks": 33600,
          "time": 21,
          "velocity": 0.7637795275590551
        },
        {
          "duration": 0.3000000000000007,
          "durationTicks": 480,
          "midi": 50,
          "name": "D3",
          "ticks": 33600,
          "time": 21,
          "velocity": 0.5354330708661418
        },
        {
          "duration": 0.3000000000000007,
          "durationTicks": 480,
          "midi": 53,
          "name": "F3",
          "ticks": 33600,
          "time": 21,
          "velocity": 0.5354330708661418
        },
        {
          "duration": 0.3000000000000007,
          "durationTicks": 480,
          "midi": 59,
          "name": "B3",
          "ticks": 33600,
          "time": 21,
          "velocity": 0.5354330708661418
        },
        {
          "duration": 0.3000000000000007,
          "durationTicks": 480,
          "midi": 50,
          "name": "D3",
          "ticks": 34080,
          "time": 21.3,
          "velocity": 0.5275590551181102
        },
        {
          "duration": 0.3000000000000007,
          "durationTicks": 480,
          "midi": 53,
          "name": "F3",
          "ticks": 34080,
          "time": 21.3,
          "velocity": 0.5275590551181102
        },
        {
          "duration": 0.3000000000000007,
          "durationTicks": 480,
          "midi": 59,
          "name": "B3",
          "ticks": 34080,
          "time": 21.3,
          "velocity": 0.5275590551181102
        },
        {
          "duration": 0.29999999999999716,
          "durationTicks": 480,
          "midi": 48,
          "name": "C3",
          "ticks": 34560,
          "time": 21.6,
          "velocity": 0.5748031496062992
        },
        {
          "duration": 0.29999999999999716,
          "durationTicks": 480,
          "midi": 52,
          "name": "E3",
          "ticks": 34560,
          "time": 21.6,
          "velocity": 0.5748031496062992
        },
        {
          "duration": 0.29999999999999716,
          "durationTicks": 480,
          "midi": 59,
          "name": "B3",
          "ticks": 34560,
          "time": 21.6,
          "velocity": 0.5748031496062992
        },
        {
          "duration": 0.3000000000000007,
          "durationTicks": 480,
          "midi": 48,
          "name": "C3",
          "ticks": 35040,
          "time": 21.9,
          "velocity": 0.5354330708661418
        },
        {
          "duration": 0.3000000000000007,
          "durationTicks": 480,
          "midi": 52,
          "name": "E3",
          "ticks": 35040,
          "time": 21.9,
          "velocity": 0.5354330708661418
        },
        {
          "duration": 0.3000000000000007,
          "durationTicks": 480,
          "midi": 59,
          "name": "B3",
          "ticks": 35040,
          "time": 21.9,
          "velocity": 0.5354330708661418
        },
        {
          "duration": 0.3049999999999997,
          "durationTicks": 488,
          "midi": 69,
          "name": "A4",
          "ticks": 35520,
          "time": 22.2,
          "velocity": 0.5984251968503937
        },
        {
          "duration": 0.3000000000000007,
          "durationTicks": 480,
          "midi": 48,
          "name": "C3",
          "ticks": 35520,
          "time": 22.2,
          "velocity": 0.5748031496062992
        },
        {
          "duration": 0.3000000000000007,
          "durationTicks": 480,
          "midi": 52,
          "name": "E3",
          "ticks": 35520,
          "time": 22.2,
          "velocity": 0.5748031496062992
        },
        {
          "duration": 0.3000000000000007,
          "durationTicks": 480,
          "midi": 57,
          "name": "A3",
          "ticks": 35520,
          "time": 22.2,
          "velocity": 0.5748031496062992
        },
        {
          "duration": 0.3049999999999997,
          "durationTicks": 488,
          "midi": 71,
          "name": "B4",
          "ticks": 36000,
          "time": 22.5,
          "velocity": 0.7007874015748031
        },
        {
          "duration": 0.3000000000000007,
          "durationTicks": 480,
          "midi": 48,
          "name": "C3",
          "ticks": 36000,
          "time": 22.5,
          "velocity": 0.6614173228346457
        },
        {
          "duration": 0.3000000000000007,
          "durationTicks": 480,
          "midi": 52,
          "name": "E3",
          "ticks": 36000,
          "time": 22.5,
          "velocity": 0.6614173228346457
        },
        {
          "duration": 0.3000000000000007,
          "durationTicks": 480,
          "midi": 57,
          "name": "A3",
          "ticks": 36000,
          "time": 22.5,
          "velocity": 0.6614173228346457
        },
        {
          "duration": 0.3049999999999997,
          "durationTicks": 488,
          "midi": 74,
          "name": "D5",
          "ticks": 36480,
          "time": 22.8,
          "velocity": 0.6929133858267716
        },
        {
          "duration": 0.3000000000000007,
          "durationTicks": 480,
          "midi": 48,
          "name": "C3",
          "ticks": 36480,
          "time": 22.8,
          "velocity": 0.6062992125984252
        },
        {
          "duration": 0.3000000000000007,
          "durationTicks": 480,
          "midi": 52,
          "name": "E3",
          "ticks": 36480,
          "time": 22.8,
          "velocity": 0.6062992125984252
        },
        {
          "duration": 0.3000000000000007,
          "durationTicks": 480,
          "midi": 57,
          "name": "A3",
          "ticks": 36480,
          "time": 22.8,
          "velocity": 0.6062992125984252
        },
        {
          "duration": 0.3049999999999997,
          "durationTicks": 488,
          "midi": 72,
          "name": "C5",
          "ticks": 36960,
          "time": 23.1,
          "velocity": 0.5905511811023622
        },
        {
          "duration": 0.29999999999999716,
          "durationTicks": 480,
          "midi": 48,
          "name": "C3",
          "ticks": 36960,
          "time": 23.1,
          "velocity": 0.5984251968503937
        },
        {
          "duration": 0.29999999999999716,
          "durationTicks": 480,
          "midi": 52,
          "name": "E3",
          "ticks": 36960,
          "time": 23.1,
          "velocity": 0.5984251968503937
        },
        {
          "duration": 0.29999999999999716,
          "durationTicks": 480,
          "midi": 57,
          "name": "A3",
          "ticks": 36960,
          "time": 23.1,
          "velocity": 0.5984251968503937
        },
        {
          "duration": 0.3049999999999997,
          "durationTicks": 488,
          "midi": 64,
          "name": "E4",
          "ticks": 37440,
          "time": 23.4,
          "velocity": 0.4330708661417323
        },
        {
          "duration": 0.3000000000000007,
          "durationTicks": 480,
          "midi": 48,
          "name": "C3",
          "ticks": 37440,
          "time": 23.4,
          "velocity": 0.5748031496062992
        },
        {
          "duration": 0.3000000000000007,
          "durationTicks": 480,
          "midi": 52,
          "name": "E3",
          "ticks": 37440,
          "time": 23.4,
          "velocity": 0.5748031496062992
        },
        {
          "duration": 0.3000000000000007,
          "durationTicks": 480,
          "midi": 57,
          "name": "A3",
          "ticks": 37440,
          "time": 23.4,
          "velocity": 0.5748031496062992
        },
        {
          "duration": 0.3049999999999997,
          "durationTicks": 488,
          "midi": 69,
          "name": "A4",
          "ticks": 37920,
          "time": 23.7,
          "velocity": 0.5826771653543307
        },
        {
          "duration": 0.3000000000000007,
          "durationTicks": 480,
          "midi": 48,
          "name": "C3",
          "ticks": 37920,
          "time": 23.7,
          "velocity": 0.5748031496062992
        },
        {
          "duration": 0.3000000000000007,
          "durationTicks": 480,
          "midi": 52,
          "name": "E3",
          "ticks": 37920,
          "time": 23.7,
          "velocity": 0.5748031496062992
        },
        {
          "duration": 0.3000000000000007,
          "durationTicks": 480,
          "midi": 57,
          "name": "A3",
          "ticks": 37920,
          "time": 23.7,
          "velocity": 0.5748031496062992
        },
        {
          "duration": 1.708750000000002,
          "durationTicks": 2734,
          "midi": 66,
          "name": "F#4",
          "ticks": 38400,
          "time": 24,
          "velocity": 0.5196850393700787
        },
        {
          "duration": 0.3000000000000007,
          "durationTicks": 480,
          "midi": 47,
          "name": "B2",
          "ticks": 38400,
          "time": 24,
          "velocity": 0.5196850393700787
        },
        {
          "duration": 0.3000000000000007,
          "durationTicks": 480,
          "midi": 52,
          "name": "E3",
          "ticks": 38400,
          "time": 24,
          "velocity": 0.5196850393700787
        },
        {
          "duration": 0.3000000000000007,
          "durationTicks": 480,
          "midi": 57,
          "name": "A3",
          "ticks": 38400,
          "time": 24,
          "velocity": 0.5196850393700787
        },
        {
          "duration": 0.3000000000000007,
          "durationTicks": 480,
          "midi": 47,
          "name": "B2",
          "ticks": 38880,
          "time": 24.3,
          "velocity": 0.5354330708661418
        },
        {
          "duration": 0.3000000000000007,
          "durationTicks": 480,
          "midi": 52,
          "name": "E3",
          "ticks": 38880,
          "time": 24.3,
          "velocity": 0.5354330708661418
        },
        {
          "duration": 0.3000000000000007,
          "durationTicks": 480,
          "midi": 57,
          "name": "A3",
          "ticks": 38880,
          "time": 24.3,
          "velocity": 0.5354330708661418
        },
        {
          "duration": 0.29999999999999716,
          "durationTicks": 480,
          "midi": 47,
          "name": "B2",
          "ticks": 39360,
          "time": 24.6,
          "velocity": 0.5275590551181102
        },
        {
          "duration": 0.29999999999999716,
          "durationTicks": 480,
          "midi": 51,
          "name": "D#3",
          "ticks": 39360,
          "time": 24.6,
          "velocity": 0.5275590551181102
        },
        {
          "duration": 0.29999999999999716,
          "durationTicks": 480,
          "midi": 57,
          "name": "A3",
          "ticks": 39360,
          "time": 24.6,
          "velocity": 0.5275590551181102
        },
        {
          "duration": 0.3000000000000007,
          "durationTicks": 480,
          "midi": 47,
          "name": "B2",
          "ticks": 39840,
          "time": 24.9,
          "velocity": 0.5748031496062992
        },
        {
          "duration": 0.3000000000000007,
          "durationTicks": 480,
          "midi": 51,
          "name": "D#3",
          "ticks": 39840,
          "time": 24.9,
          "velocity": 0.5748031496062992
        },
        {
          "duration": 0.3000000000000007,
          "durationTicks": 480,
          "midi": 57,
          "name": "A3",
          "ticks": 39840,
          "time": 24.9,
          "velocity": 0.5748031496062992
        },
        {
          "duration": 0.3000000000000007,
          "durationTicks": 480,
          "midi": 48,
          "name": "C3",
          "ticks": 40320,
          "time": 25.2,
          "velocity": 0.5748031496062992
        },
        {
          "duration": 0.3000000000000007,
          "durationTicks": 480,
          "midi": 52,
          "name": "E3",
          "ticks": 40320,
          "time": 25.2,
          "velocity": 0.5748031496062992
        },
        {
          "duration": 0.3000000000000007,
          "durationTicks": 480,
          "midi": 57,
          "name": "A3",
          "ticks": 40320,
          "time": 25.2,
          "velocity": 0.5748031496062992
        },
        {
          "duration": 0.3000000000000007,
          "durationTicks": 480,
          "midi": 48,
          "name": "C3",
          "ticks": 40800,
          "time": 25.5,
          "velocity": 0.5433070866141733
        },
        {
          "duration": 0.3000000000000007,
          "durationTicks": 480,
          "midi": 52,
          "name": "E3",
          "ticks": 40800,
          "time": 25.5,
          "velocity": 0.5433070866141733
        },
        {
          "duration": 0.3000000000000007,
          "durationTicks": 480,
          "midi": 57,
          "name": "A3",
          "ticks": 40800,
          "time": 25.5,
          "velocity": 0.5433070866141733
        },
        {
          "duration": 0.6118750000000013,
          "durationTicks": 979,
          "midi": 69,
          "name": "A4",
          "ticks": 41280,
          "time": 25.8,
          "velocity": 0.6220472440944882
        },
        {
          "duration": 0.3000000000000007,
          "durationTicks": 480,
          "midi": 48,
          "name": "C3",
          "ticks": 41280,
          "time": 25.8,
          "velocity": 0.5433070866141733
        },
        {
          "duration": 0.3000000000000007,
          "durationTicks": 480,
          "midi": 52,
          "name": "E3",
          "ticks": 41280,
          "time": 25.8,
          "velocity": 0.5433070866141733
        },
        {
          "duration": 0.3000000000000007,
          "durationTicks": 480,
          "midi": 57,
          "name": "A3",
          "ticks": 41280,
          "time": 25.8,
          "velocity": 0.5433070866141733
        },
        {
          "duration": 0.29999999999999716,
          "durationTicks": 480,
          "midi": 48,
          "name": "C3",
          "ticks": 41760,
          "time": 26.1,
          "velocity": 0.5354330708661418
        },
        {
          "duration": 0.29999999999999716,
          "durationTicks": 480,
          "midi": 52,
          "name": "E3",
          "ticks": 41760,
          "time": 26.1,
          "velocity": 0.5354330708661418
        },
        {
          "duration": 0.29999999999999716,
          "durationTicks": 480,
          "midi": 57,
          "name": "A3",
          "ticks": 41760,
          "time": 26.1,
          "velocity": 0.5354330708661418
        },
        {
          "duration": 1.708750000000002,
          "durationTicks": 2734,
          "midi": 66,
          "name": "F#4",
          "ticks": 42240,
          "time": 26.4,
          "velocity": 0.5905511811023622
        },
        {
          "duration": 0.3000000000000007,
          "durationTicks": 480,
          "midi": 47,
          "name": "B2",
          "ticks": 42240,
          "time": 26.4,
          "velocity": 0.5511811023622047
        },
        {
          "duration": 0.3000000000000007,
          "durationTicks": 480,
          "midi": 51,
          "name": "D#3",
          "ticks": 42240,
          "time": 26.4,
          "velocity": 0.5511811023622047
        },
        {
          "duration": 0.3000000000000007,
          "durationTicks": 480,
          "midi": 57,
          "name": "A3",
          "ticks": 42240,
          "time": 26.4,
          "velocity": 0.5511811023622047
        },
        {
          "duration": 0.3000000000000007,
          "durationTicks": 480,
          "midi": 47,
          "name": "B2",
          "ticks": 42720,
          "time": 26.7,
          "velocity": 0.5511811023622047
        },
        {
          "duration": 0.3000000000000007,
          "durationTicks": 480,
          "midi": 51,
          "name": "D#3",
          "ticks": 42720,
          "time": 26.7,
          "velocity": 0.5511811023622047
        },
        {
          "duration": 0.3000000000000007,
          "durationTicks": 480,
          "midi": 57,
          "name": "A3",
          "ticks": 42720,
          "time": 26.7,
          "velocity": 0.5511811023622047
        },
        {
          "duration": 0.3000000000000007,
          "durationTicks": 480,
          "midi": 47,
          "name": "B2",
          "ticks": 43200,
          "time": 27,
          "velocity": 0.5590551181102362
        },
        {
          "duration": 0.3000000000000007,
          "durationTicks": 480,
          "midi": 51,
          "name": "D#3",
          "ticks": 43200,
          "time": 27,
          "velocity": 0.5590551181102362
        },
        {
          "duration": 0.3000000000000007,
          "durationTicks": 480,
          "midi": 57,
          "name": "A3",
          "ticks": 43200,
          "time": 27,
          "velocity": 0.5590551181102362
        },
        {
          "duration": 0.3000000000000007,
          "durationTicks": 480,
          "midi": 47,
          "name": "B2",
          "ticks": 43680,
          "time": 27.3,
          "velocity": 0.5511811023622047
        },
        {
          "duration": 0.3000000000000007,
          "durationTicks": 480,
          "midi": 51,
          "name": "D#3",
          "ticks": 43680,
          "time": 27.3,
          "velocity": 0.5511811023622047
        },
        {
          "duration": 0.3000000000000007,
          "durationTicks": 480,
          "midi": 57,
          "name": "A3",
          "ticks": 43680,
          "time": 27.3,
          "velocity": 0.5511811023622047
        },
        {
          "duration": 0.29999999999999716,
          "durationTicks": 480,
          "midi": 48,
          "name": "C3",
          "ticks": 44160,
          "time": 27.6,
          "velocity": 0.5826771653543307
        },
        {
          "duration": 0.29999999999999716,
          "durationTicks": 480,
          "midi": 52,
          "name": "E3",
          "ticks": 44160,
          "time": 27.6,
          "velocity": 0.5826771653543307
        },
        {
          "duration": 0.29999999999999716,
          "durationTicks": 480,
          "midi": 57,
          "name": "A3",
          "ticks": 44160,
          "time": 27.6,
          "velocity": 0.5826771653543307
        },
        {
          "duration": 0.3000000000000007,
          "durationTicks": 480,
          "midi": 48,
          "name": "C3",
          "ticks": 44640,
          "time": 27.9,
          "velocity": 0.5590551181102362
        },
        {
          "duration": 0.3000000000000007,
          "durationTicks": 480,
          "midi": 52,
          "name": "E3",
          "ticks": 44640,
          "time": 27.9,
          "velocity": 0.5590551181102362
        },
        {
          "duration": 0.3000000000000007,
          "durationTicks": 480,
          "midi": 57,
          "name": "A3",
          "ticks": 44640,
          "time": 27.9,
          "velocity": 0.5590551181102362
        },
        {
          "duration": 0.05624999999999858,
          "durationTicks": 90,
          "midi": 71,
          "name": "B4",
          "ticks": 45030,
          "time": 28.14375,
          "velocity": 0.4330708661417323
        },
        {
          "duration": 0.5787499999999994,
          "durationTicks": 926,
          "midi": 69,
          "name": "A4",
          "ticks": 45120,
          "time": 28.2,
          "velocity": 0.4330708661417323
        },
        {
          "duration": 0.3000000000000007,
          "durationTicks": 480,
          "midi": 48,
          "name": "C3",
          "ticks": 45120,
          "time": 28.2,
          "velocity": 0.4645669291338583
        },
        {
          "duration": 0.3000000000000007,
          "durationTicks": 480,
          "midi": 52,
          "name": "E3",
          "ticks": 45120,
          "time": 28.2,
          "velocity": 0.4645669291338583
        },
        {
          "duration": 0.3000000000000007,
          "durationTicks": 480,
          "midi": 57,
          "name": "A3",
          "ticks": 45120,
          "time": 28.2,
          "velocity": 0.4645669291338583
        },
        {
          "duration": 0.3000000000000007,
          "durationTicks": 480,
          "midi": 48,
          "name": "C3",
          "ticks": 45600,
          "time": 28.5,
          "velocity": 0.47244094488188976
        },
        {
          "duration": 0.3000000000000007,
          "durationTicks": 480,
          "midi": 52,
          "name": "E3",
          "ticks": 45600,
          "time": 28.5,
          "velocity": 0.47244094488188976
        },
        {
          "duration": 0.3000000000000007,
          "durationTicks": 480,
          "midi": 57,
          "name": "A3",
          "ticks": 45600,
          "time": 28.5,
          "velocity": 0.47244094488188976
        },
        {
          "duration": 0.2881249999999973,
          "durationTicks": 461,
          "midi": 67,
          "name": "G4",
          "ticks": 46080,
          "time": 28.8,
          "velocity": 0.4409448818897638
        },
        {
          "duration": 0.5999999999999979,
          "durationTicks": 960,
          "midi": 47,
          "name": "B2",
          "ticks": 46080,
          "time": 28.8,
          "velocity": 0.48031496062992124
        },
        {
          "duration": 0.5999999999999979,
          "durationTicks": 960,
          "midi": 51,
          "name": "D#3",
          "ticks": 46080,
          "time": 28.8,
          "velocity": 0.48031496062992124
        },
        {
          "duration": 0.5999999999999979,
          "durationTicks": 960,
          "midi": 57,
          "name": "A3",
          "ticks": 46080,
          "time": 28.8,
          "velocity": 0.48031496062992124
        },
        {
          "duration": 0.3049999999999997,
          "durationTicks": 488,
          "midi": 66,
          "name": "F#4",
          "ticks": 46560,
          "time": 29.1,
          "velocity": 0.4645669291338583
        },
        {
          "duration": 0.3049999999999997,
          "durationTicks": 488,
          "midi": 60,
          "name": "C4",
          "ticks": 47040,
          "time": 29.4,
          "velocity": 0.4015748031496063
        },
        {
          "duration": 0.3049999999999997,
          "durationTicks": 488,
          "midi": 59,
          "name": "B3",
          "ticks": 47520,
          "time": 29.7,
          "velocity": 0.4566929133858268
        },
        {
          "duration": 0.3049999999999997,
          "durationTicks": 488,
          "midi": 63,
          "name": "D#4",
          "ticks": 48000,
          "time": 30,
          "velocity": 0.5590551181102362
        },
        {
          "duration": 0.3049999999999997,
          "durationTicks": 488,
          "midi": 66,
          "name": "F#4",
          "ticks": 48480,
          "time": 30.3,
          "velocity": 0.5905511811023622
        },
        {
          "duration": 0.20187500000000114,
          "durationTicks": 323,
          "midi": 74,
          "name": "D5",
          "ticks": 48960,
          "time": 30.599999999999998,
          "velocity": 0.6850393700787402
        },
        {
          "duration": 0.2012499999999946,
          "durationTicks": 322,
          "midi": 72,
          "name": "C5",
          "ticks": 49279,
          "time": 30.799375,
          "velocity": 0.6929133858267716
        },
        {
          "duration": 0.1893749999999983,
          "durationTicks": 303,
          "midi": 71,
          "name": "B4",
          "ticks": 49598,
          "time": 30.998749999999998,
          "velocity": 0.49606299212598426
        },
        {
          "duration": 1.8349999999999973,
          "durationTicks": 2936,
          "midi": 71,
          "name": "B4",
          "ticks": 49920,
          "time": 31.2,
          "velocity": 0.5196850393700787
        },
        {
          "duration": 0.3000000000000007,
          "durationTicks": 480,
          "midi": 55,
          "name": "G3",
          "ticks": 49920,
          "time": 31.2,
          "velocity": 0.4566929133858268
        },
        {
          "duration": 0.3000000000000007,
          "durationTicks": 480,
          "midi": 59,
          "name": "B3",
          "ticks": 49920,
          "time": 31.2,
          "velocity": 0.4566929133858268
        },
        {
          "duration": 0.3000000000000007,
          "durationTicks": 480,
          "midi": 64,
          "name": "E4",
          "ticks": 49920,
          "time": 31.2,
          "velocity": 0.4566929133858268
        },
        {
          "duration": 0.3000000000000007,
          "durationTicks": 480,
          "midi": 55,
          "name": "G3",
          "ticks": 50400,
          "time": 31.5,
          "velocity": 0.47244094488188976
        },
        {
          "duration": 0.3000000000000007,
          "durationTicks": 480,
          "midi": 59,
          "name": "B3",
          "ticks": 50400,
          "time": 31.5,
          "velocity": 0.47244094488188976
        },
        {
          "duration": 0.3000000000000007,
          "durationTicks": 480,
          "midi": 64,
          "name": "E4",
          "ticks": 50400,
          "time": 31.5,
          "velocity": 0.47244094488188976
        },
        {
          "duration": 0.2999999999999936,
          "durationTicks": 480,
          "midi": 55,
          "name": "G3",
          "ticks": 50880,
          "time": 31.8,
          "velocity": 0.5275590551181102
        },
        {
          "duration": 0.2999999999999936,
          "durationTicks": 480,
          "midi": 59,
          "name": "B3",
          "ticks": 50880,
          "time": 31.8,
          "velocity": 0.5275590551181102
        },
        {
          "duration": 0.2999999999999936,
          "durationTicks": 480,
          "midi": 64,
          "name": "E4",
          "ticks": 50880,
          "time": 31.8,
          "velocity": 0.5275590551181102
        },
        {
          "duration": 0.30000000000000426,
          "durationTicks": 480,
          "midi": 55,
          "name": "G3",
          "ticks": 51360,
          "time": 32.099999999999994,
          "velocity": 0.4881889763779528
        },
        {
          "duration": 0.30000000000000426,
          "durationTicks": 480,
          "midi": 59,
          "name": "B3",
          "ticks": 51360,
          "time": 32.099999999999994,
          "velocity": 0.4881889763779528
        },
        {
          "duration": 0.30000000000000426,
          "durationTicks": 480,
          "midi": 64,
          "name": "E4",
          "ticks": 51360,
          "time": 32.099999999999994,
          "velocity": 0.4881889763779528
        },
        {
          "duration": 0.29999999999999716,
          "durationTicks": 480,
          "midi": 55,
          "name": "G3",
          "ticks": 51840,
          "time": 32.4,
          "velocity": 0.49606299212598426
        },
        {
          "duration": 0.29999999999999716,
          "durationTicks": 480,
          "midi": 59,
          "name": "B3",
          "ticks": 51840,
          "time": 32.4,
          "velocity": 0.49606299212598426
        },
        {
          "duration": 0.29999999999999716,
          "durationTicks": 480,
          "midi": 64,
          "name": "E4",
          "ticks": 51840,
          "time": 32.4,
          "velocity": 0.49606299212598426
        },
        {
          "duration": 0.30000000000000426,
          "durationTicks": 480,
          "midi": 55,
          "name": "G3",
          "ticks": 52320,
          "time": 32.699999999999996,
          "velocity": 0.48031496062992124
        },
        {
          "duration": 0.30000000000000426,
          "durationTicks": 480,
          "midi": 59,
          "name": "B3",
          "ticks": 52320,
          "time": 32.699999999999996,
          "velocity": 0.48031496062992124
        },
        {
          "duration": 0.30000000000000426,
          "durationTicks": 480,
          "midi": 64,
          "name": "E4",
          "ticks": 52320,
          "time": 32.699999999999996,
          "velocity": 0.48031496062992124
        },
        {
          "duration": 0.6118749999999977,
          "durationTicks": 979,
          "midi": 72,
          "name": "C5",
          "ticks": 52800,
          "time": 33,
          "velocity": 0.5275590551181102
        },
        {
          "duration": 0.29999999999999716,
          "durationTicks": 480,
          "midi": 55,
          "name": "G3",
          "ticks": 52800,
          "time": 33,
          "velocity": 0.5118110236220472
        },
        {
          "duration": 0.29999999999999716,
          "durationTicks": 480,
          "midi": 59,
          "name": "B3",
          "ticks": 52800,
          "time": 33,
          "velocity": 0.5118110236220472
        },
        {
          "duration": 0.29999999999999716,
          "durationTicks": 480,
          "midi": 64,
          "name": "E4",
          "ticks": 52800,
          "time": 33,
          "velocity": 0.5118110236220472
        },
        {
          "duration": 0.29999999999999716,
          "durationTicks": 480,
          "midi": 55,
          "name": "G3",
          "ticks": 53280,
          "time": 33.3,
          "velocity": 0.4409448818897638
        },
        {
          "duration": 0.29999999999999716,
          "durationTicks": 480,
          "midi": 59,
          "name": "B3",
          "ticks": 53280,
          "time": 33.3,
          "velocity": 0.4409448818897638
        },
        {
          "duration": 0.29999999999999716,
          "durationTicks": 480,
          "midi": 64,
          "name": "E4",
          "ticks": 53280,
          "time": 33.3,
          "velocity": 0.4409448818897638
        },
        {
          "duration": 1.8350000000000009,
          "durationTicks": 2936,
          "midi": 71,
          "name": "B4",
          "ticks": 53760,
          "time": 33.599999999999994,
          "velocity": 0.4566929133858268
        },
        {
          "duration": 0.30000000000000426,
          "durationTicks": 480,
          "midi": 54,
          "name": "F#3",
          "ticks": 53760,
          "time": 33.599999999999994,
          "velocity": 0.49606299212598426
        },
        {
          "duration": 0.30000000000000426,
          "durationTicks": 480,
          "midi": 57,
          "name": "A3",
          "ticks": 53760,
          "time": 33.599999999999994,
          "velocity": 0.49606299212598426
        },
        {
          "duration": 0.30000000000000426,
          "durationTicks": 480,
          "midi": 64,
          "name": "E4",
          "ticks": 53760,
          "time": 33.599999999999994,
          "velocity": 0.49606299212598426
        },
        {
          "duration": 0.29999999999999716,
          "durationTicks": 480,
          "midi": 54,
          "name": "F#3",
          "ticks": 54240,
          "time": 33.9,
          "velocity": 0.48031496062992124
        },
        {
          "duration": 0.29999999999999716,
          "durationTicks": 480,
          "midi": 57,
          "name": "A3",
          "ticks": 54240,
          "time": 33.9,
          "velocity": 0.48031496062992124
        },
        {
          "duration": 0.29999999999999716,
          "durationTicks": 480,
          "midi": 64,
          "name": "E4",
          "ticks": 54240,
          "time": 33.9,
          "velocity": 0.48031496062992124
        },
        {
          "duration": 0.29999999999999716,
          "durationTicks": 480,
          "midi": 54,
          "name": "F#3",
          "ticks": 54720,
          "time": 34.199999999999996,
          "velocity": 0.44881889763779526
        },
        {
          "duration": 0.29999999999999716,
          "durationTicks": 480,
          "midi": 57,
          "name": "A3",
          "ticks": 54720,
          "time": 34.199999999999996,
          "velocity": 0.44881889763779526
        },
        {
          "duration": 0.29999999999999716,
          "durationTicks": 480,
          "midi": 64,
          "name": "E4",
          "ticks": 54720,
          "time": 34.199999999999996,
          "velocity": 0.44881889763779526
        },
        {
          "duration": 0.30000000000000426,
          "durationTicks": 480,
          "midi": 54,
          "name": "F#3",
          "ticks": 55200,
          "time": 34.49999999999999,
          "velocity": 0.5118110236220472
        },
        {
          "duration": 0.30000000000000426,
          "durationTicks": 480,
          "midi": 57,
          "name": "A3",
          "ticks": 55200,
          "time": 34.49999999999999,
          "velocity": 0.5118110236220472
        },
        {
          "duration": 0.30000000000000426,
          "durationTicks": 480,
          "midi": 64,
          "name": "E4",
          "ticks": 55200,
          "time": 34.49999999999999,
          "velocity": 0.5118110236220472
        },
        {
          "duration": 0.29999999999999716,
          "durationTicks": 480,
          "midi": 53,
          "name": "F3",
          "ticks": 55680,
          "time": 34.8,
          "velocity": 0.44881889763779526
        },
        {
          "duration": 0.29999999999999716,
          "durationTicks": 480,
          "midi": 57,
          "name": "A3",
          "ticks": 55680,
          "time": 34.8,
          "velocity": 0.44881889763779526
        },
        {
          "duration": 0.29999999999999716,
          "durationTicks": 480,
          "midi": 63,
          "name": "D#4",
          "ticks": 55680,
          "time": 34.8,
          "velocity": 0.44881889763779526
        },
        {
          "duration": 0.30000000000000426,
          "durationTicks": 480,
          "midi": 53,
          "name": "F3",
          "ticks": 56160,
          "time": 35.099999999999994,
          "velocity": 0.48031496062992124
        },
        {
          "duration": 0.30000000000000426,
          "durationTicks": 480,
          "midi": 57,
          "name": "A3",
          "ticks": 56160,
          "time": 35.099999999999994,
          "velocity": 0.48031496062992124
        },
        {
          "duration": 0.30000000000000426,
          "durationTicks": 480,
          "midi": 63,
          "name": "D#4",
          "ticks": 56160,
          "time": 35.099999999999994,
          "velocity": 0.48031496062992124
        },
        {
          "duration": 0.6118749999999977,
          "durationTicks": 979,
          "midi": 72,
          "name": "C5",
          "ticks": 56640,
          "time": 35.4,
          "velocity": 0.49606299212598426
        },
        {
          "duration": 0.29999999999999716,
          "durationTicks": 480,
          "midi": 53,
          "name": "F3",
          "ticks": 56640,
          "time": 35.4,
          "velocity": 0.5039370078740157
        },
        {
          "duration": 0.29999999999999716,
          "durationTicks": 480,
          "midi": 57,
          "name": "A3",
          "ticks": 56640,
          "time": 35.4,
          "velocity": 0.5039370078740157
        },
        {
          "duration": 0.29999999999999716,
          "durationTicks": 480,
          "midi": 63,
          "name": "D#4",
          "ticks": 56640,
          "time": 35.4,
          "velocity": 0.5039370078740157
        },
        {
          "duration": 0.29999999999999716,
          "durationTicks": 480,
          "midi": 53,
          "name": "F3",
          "ticks": 57120,
          "time": 35.699999999999996,
          "velocity": 0.5039370078740157
        },
        {
          "duration": 0.29999999999999716,
          "durationTicks": 480,
          "midi": 57,
          "name": "A3",
          "ticks": 57120,
          "time": 35.699999999999996,
          "velocity": 0.5039370078740157
        },
        {
          "duration": 0.29999999999999716,
          "durationTicks": 480,
          "midi": 63,
          "name": "D#4",
          "ticks": 57120,
          "time": 35.699999999999996,
          "velocity": 0.5039370078740157
        },
        {
          "duration": 1.8350000000000009,
          "durationTicks": 2936,
          "midi": 71,
          "name": "B4",
          "ticks": 57600,
          "time": 35.99999999999999,
          "velocity": 0.4881889763779528
        },
        {
          "duration": 0.30000000000000426,
          "durationTicks": 480,
          "midi": 53,
          "name": "F3",
          "ticks": 57600,
          "time": 35.99999999999999,
          "velocity": 0.47244094488188976
        },
        {
          "duration": 0.30000000000000426,
          "durationTicks": 480,
          "midi": 56,
          "name": "G#3",
          "ticks": 57600,
          "time": 35.99999999999999,
          "velocity": 0.47244094488188976
        },
        {
          "duration": 0.30000000000000426,
          "durationTicks": 480,
          "midi": 63,
          "name": "D#4",
          "ticks": 57600,
          "time": 35.99999999999999,
          "velocity": 0.47244094488188976
        },
        {
          "duration": 0.29999999999999716,
          "durationTicks": 480,
          "midi": 53,
          "name": "F3",
          "ticks": 58080,
          "time": 36.3,
          "velocity": 0.4645669291338583
        },
        {
          "duration": 0.29999999999999716,
          "durationTicks": 480,
          "midi": 56,
          "name": "G#3",
          "ticks": 58080,
          "time": 36.3,
          "velocity": 0.4645669291338583
        },
        {
          "duration": 0.29999999999999716,
          "durationTicks": 480,
          "midi": 63,
          "name": "D#4",
          "ticks": 58080,
          "time": 36.3,
          "velocity": 0.4645669291338583
        },
        {
          "duration": 0.30000000000000426,
          "durationTicks": 480,
          "midi": 53,
          "name": "F3",
          "ticks": 58560,
          "time": 36.599999999999994,
          "velocity": 0.4330708661417323
        },
        {
          "duration": 0.30000000000000426,
          "durationTicks": 480,
          "midi": 56,
          "name": "G#3",
          "ticks": 58560,
          "time": 36.599999999999994,
          "velocity": 0.4330708661417323
        },
        {
          "duration": 0.30000000000000426,
          "durationTicks": 480,
          "midi": 62,
          "name": "D4",
          "ticks": 58560,
          "time": 36.599999999999994,
          "velocity": 0.4330708661417323
        },
        {
          "duration": 0.29999999999999716,
          "durationTicks": 480,
          "midi": 53,
          "name": "F3",
          "ticks": 59040,
          "time": 36.9,
          "velocity": 0.4645669291338583
        },
        {
          "duration": 0.29999999999999716,
          "durationTicks": 480,
          "midi": 56,
          "name": "G#3",
          "ticks": 59040,
          "time": 36.9,
          "velocity": 0.4645669291338583
        },
        {
          "duration": 0.29999999999999716,
          "durationTicks": 480,
          "midi": 62,
          "name": "D4",
          "ticks": 59040,
          "time": 36.9,
          "velocity": 0.4645669291338583
        },
        {
          "duration": 0.29999999999999716,
          "durationTicks": 480,
          "midi": 52,
          "name": "E3",
          "ticks": 59520,
          "time": 37.199999999999996,
          "velocity": 0.44881889763779526
        },
        {
          "duration": 0.29999999999999716,
          "durationTicks": 480,
          "midi": 56,
          "name": "G#3",
          "ticks": 59520,
          "time": 37.199999999999996,
          "velocity": 0.44881889763779526
        },
        {
          "duration": 0.29999999999999716,
          "durationTicks": 480,
          "midi": 62,
          "name": "D4",
          "ticks": 59520,
          "time": 37.199999999999996,
          "velocity": 0.44881889763779526
        },
        {
          "duration": 0.30000000000000426,
          "durationTicks": 480,
          "midi": 52,
          "name": "E3",
          "ticks": 60000,
          "time": 37.49999999999999,
          "velocity": 0.5039370078740157
        },
        {
          "duration": 0.30000000000000426,
          "durationTicks": 480,
          "midi": 56,
          "name": "G#3",
          "ticks": 60000,
          "time": 37.49999999999999,
          "velocity": 0.5039370078740157
        },
        {
          "duration": 0.30000000000000426,
          "durationTicks": 480,
          "midi": 62,
          "name": "D4",
          "ticks": 60000,
          "time": 37.49999999999999,
          "velocity": 0.5039370078740157
        },
        {
          "duration": 0.6118749999999977,
          "durationTicks": 979,
          "midi": 72,
          "name": "C5",
          "ticks": 60480,
          "time": 37.8,
          "velocity": 0.5039370078740157
        },
        {
          "duration": 0.29999999999999716,
          "durationTicks": 480,
          "midi": 52,
          "name": "E3",
          "ticks": 60480,
          "time": 37.8,
          "velocity": 0.47244094488188976
        },
        {
          "duration": 0.29999999999999716,
          "durationTicks": 480,
          "midi": 56,
          "name": "G#3",
          "ticks": 60480,
          "time": 37.8,
          "velocity": 0.47244094488188976
        },
        {
          "duration": 0.29999999999999716,
          "durationTicks": 480,
          "midi": 62,
          "name": "D4",
          "ticks": 60480,
          "time": 37.8,
          "velocity": 0.47244094488188976
        },
        {
          "duration": 0.30000000000000426,
          "durationTicks": 480,
          "midi": 52,
          "name": "E3",
          "ticks": 60960,
          "time": 38.099999999999994,
          "velocity": 0.48031496062992124
        },
        {
          "duration": 0.30000000000000426,
          "durationTicks": 480,
          "midi": 56,
          "name": "G#3",
          "ticks": 60960,
          "time": 38.099999999999994,
          "velocity": 0.48031496062992124
        },
        {
          "duration": 0.30000000000000426,
          "durationTicks": 480,
          "midi": 62,
          "name": "D4",
          "ticks": 60960,
          "time": 38.099999999999994,
          "velocity": 0.48031496062992124
        },
        {
          "duration": 0.4568749999999966,
          "durationTicks": 731,
          "midi": 71,
          "name": "B4",
          "ticks": 61440,
          "time": 38.4,
          "velocity": 0.5039370078740157
        },
        {
          "duration": 0.29999999999999716,
          "durationTicks": 480,
          "midi": 52,
          "name": "E3",
          "ticks": 61440,
          "time": 38.4,
          "velocity": 0.5354330708661418
        },
        {
          "duration": 0.29999999999999716,
          "durationTicks": 480,
          "midi": 55,
          "name": "G3",
          "ticks": 61440,
          "time": 38.4,
          "velocity": 0.5354330708661418
        },
        {
          "duration": 0.29999999999999716,
          "durationTicks": 480,
          "midi": 62,
          "name": "D4",
          "ticks": 61440,
          "time": 38.4,
          "velocity": 0.5354330708661418
        },
        {
          "duration": 0.29999999999999716,
          "durationTicks": 480,
          "midi": 52,
          "name": "E3",
          "ticks": 61920,
          "time": 38.699999999999996,
          "velocity": 0.5433070866141733
        },
        {
          "duration": 0.29999999999999716,
          "durationTicks": 480,
          "midi": 55,
          "name": "G3",
          "ticks": 61920,
          "time": 38.699999999999996,
          "velocity": 0.5433070866141733
        },
        {
          "duration": 0.29999999999999716,
          "durationTicks": 480,
          "midi": 62,
          "name": "D4",
          "ticks": 61920,
          "time": 38.699999999999996,
          "velocity": 0.5433070866141733
        },
        {
          "duration": 0.14999999999999858,
          "durationTicks": 240,
          "midi": 70,
          "name": "A#4",
          "ticks": 62160,
          "time": 38.849999999999994,
          "velocity": 0.5275590551181102
        },
        {
          "duration": 0.353749999999998,
          "durationTicks": 566,
          "midi": 70,
          "name": "A#4",
          "ticks": 62400,
          "time": 38.99999999999999,
          "velocity": 0.5511811023622047
        },
        {
          "duration": 0.30000000000000426,
          "durationTicks": 480,
          "midi": 52,
          "name": "E3",
          "ticks": 62400,
          "time": 38.99999999999999,
          "velocity": 0.5669291338582677
        },
        {
          "duration": 0.30000000000000426,
          "durationTicks": 480,
          "midi": 55,
          "name": "G3",
          "ticks": 62400,
          "time": 38.99999999999999,
          "velocity": 0.5669291338582677
        },
        {
          "duration": 0.30000000000000426,
          "durationTicks": 480,
          "midi": 61,
          "name": "C#4",
          "ticks": 62400,
          "time": 38.99999999999999,
          "velocity": 0.5669291338582677
        },
        {
          "duration": 0.29999999999999716,
          "durationTicks": 480,
          "midi": 52,
          "name": "E3",
          "ticks": 62880,
          "time": 39.3,
          "velocity": 0.6220472440944882
        },
        {
          "duration": 0.29999999999999716,
          "durationTicks": 480,
          "midi": 55,
          "name": "G3",
          "ticks": 62880,
          "time": 39.3,
          "velocity": 0.6220472440944882
        },
        {
          "duration": 0.29999999999999716,
          "durationTicks": 480,
          "midi": 61,
          "name": "C#4",
          "ticks": 62880,
          "time": 39.3,
          "velocity": 0.6220472440944882
        },
        {
          "duration": 0.2462500000000034,
          "durationTicks": 394,
          "midi": 71,
          "name": "B4",
          "ticks": 62966,
          "time": 39.35374999999999,
          "velocity": 0.7637795275590551
        },
        {
          "duration": 0.19687499999999858,
          "durationTicks": 315,
          "midi": 70,
          "name": "A#4",
          "ticks": 63045,
          "time": 39.403124999999996,
          "velocity": 0.7637795275590551
        },
        {
          "duration": 0.13374999999999915,
          "durationTicks": 214,
          "midi": 69,
          "name": "A4",
          "ticks": 63146,
          "time": 39.466249999999995,
          "velocity": 0.7637795275590551
        },
        {
          "duration": 0.08437500000000142,
          "durationTicks": 135,
          "midi": 70,
          "name": "A#4",
          "ticks": 63225,
          "time": 39.51562499999999,
          "velocity": 0.7637795275590551
        },
        {
          "duration": 0.6118749999999977,
          "durationTicks": 979,
          "midi": 79,
          "name": "G5",
          "ticks": 63360,
          "time": 39.599999999999994,
          "velocity": 0.7637795275590551
        },
        {
          "duration": 0.30000000000000426,
          "durationTicks": 480,
          "midi": 49,
          "name": "C#3",
          "ticks": 63360,
          "time": 39.599999999999994,
          "velocity": 0.5669291338582677
        },
        {
          "duration": 0.30000000000000426,
          "durationTicks": 480,
          "midi": 52,
          "name": "E3",
          "ticks": 63360,
          "time": 39.599999999999994,
          "velocity": 0.5669291338582677
        },
        {
          "duration": 0.30000000000000426,
          "durationTicks": 480,
          "midi": 58,
          "name": "A#3",
          "ticks": 63360,
          "time": 39.599999999999994,
          "velocity": 0.5669291338582677
        },
        {
          "duration": 0.29999999999999716,
          "durationTicks": 480,
          "midi": 49,
          "name": "C#3",
          "ticks": 63840,
          "time": 39.9,
          "velocity": 0.7244094488188977
        },
        {
          "duration": 0.29999999999999716,
          "durationTicks": 480,
          "midi": 52,
          "name": "E3",
          "ticks": 63840,
          "time": 39.9,
          "velocity": 0.7244094488188977
        },
        {
          "duration": 0.29999999999999716,
          "durationTicks": 480,
          "midi": 58,
          "name": "A#3",
          "ticks": 63840,
          "time": 39.9,
          "velocity": 0.7244094488188977
        },
        {
          "duration": 0.4568750000000037,
          "durationTicks": 731,
          "midi": 78,
          "name": "F#5",
          "ticks": 64320,
          "time": 40.199999999999996,
          "velocity": 0.7165354330708661
        },
        {
          "duration": 0.29999999999999716,
          "durationTicks": 480,
          "midi": 48,
          "name": "C3",
          "ticks": 64320,
          "time": 40.199999999999996,
          "velocity": 0.6456692913385826
        },
        {
          "duration": 0.29999999999999716,
          "durationTicks": 480,
          "midi": 52,
          "name": "E3",
          "ticks": 64320,
          "time": 40.199999999999996,
          "velocity": 0.6456692913385826
        },
        {
          "duration": 0.29999999999999716,
          "durationTicks": 480,
          "midi": 57,
          "name": "A3",
          "ticks": 64320,
          "time": 40.199999999999996,
          "velocity": 0.6456692913385826
        },
        {
          "duration": 0.30000000000000426,
          "durationTicks": 480,
          "midi": 48,
          "name": "C3",
          "ticks": 64800,
          "time": 40.49999999999999,
          "velocity": 0.6850393700787402
        },
        {
          "duration": 0.30000000000000426,
          "durationTicks": 480,
          "midi": 52,
          "name": "E3",
          "ticks": 64800,
          "time": 40.49999999999999,
          "velocity": 0.6850393700787402
        },
        {
          "duration": 0.30000000000000426,
          "durationTicks": 480,
          "midi": 57,
          "name": "A3",
          "ticks": 64800,
          "time": 40.49999999999999,
          "velocity": 0.6850393700787402
        },
        {
          "duration": 0.14999999999999858,
          "durationTicks": 240,
          "midi": 76,
          "name": "E5",
          "ticks": 65040,
          "time": 40.65,
          "velocity": 0.6692913385826772
        },
        {
          "duration": 0.3049999999999997,
          "durationTicks": 488,
          "midi": 76,
          "name": "E5",
          "ticks": 65280,
          "time": 40.8,
          "velocity": 0.7637795275590551
        },
        {
          "duration": 0.29999999999999716,
          "durationTicks": 480,
          "midi": 35,
          "name": "B1",
          "ticks": 65280,
          "time": 40.8,
          "velocity": 0.6614173228346457
        },
        {
          "duration": 0.29999999999999716,
          "durationTicks": 480,
          "midi": 47,
          "name": "B2",
          "ticks": 65280,
          "time": 40.8,
          "velocity": 0.6614173228346457
        },
        {
          "duration": 0.3050000000000068,
          "durationTicks": 488,
          "midi": 75,
          "name": "D#5",
          "ticks": 65760,
          "time": 41.099999999999994,
          "velocity": 0.7086614173228346
        },
        {
          "duration": 0.30000000000000426,
          "durationTicks": 480,
          "midi": 57,
          "name": "A3",
          "ticks": 65760,
          "time": 41.099999999999994,
          "velocity": 0.952755905511811
        },
        {
          "duration": 0.30000000000000426,
          "durationTicks": 480,
          "midi": 60,
          "name": "C4",
          "ticks": 65760,
          "time": 41.099999999999994,
          "velocity": 0.952755905511811
        },
        {
          "duration": 0.30000000000000426,
          "durationTicks": 480,
          "midi": 66,
          "name": "F#4",
          "ticks": 65760,
          "time": 41.099999999999994,
          "velocity": 0.952755905511811
        },
        {
          "duration": 0.30000000000000426,
          "durationTicks": 480,
          "midi": 69,
          "name": "A4",
          "ticks": 65760,
          "time": 41.099999999999994,
          "velocity": 0.952755905511811
        },
        {
          "duration": 0.3049999999999997,
          "durationTicks": 488,
          "midi": 84,
          "name": "C6",
          "ticks": 66240,
          "time": 41.4,
          "velocity": 0.9606299212598425
        },
        {
          "duration": 0.29999999999999716,
          "durationTicks": 480,
          "midi": 57,
          "name": "A3",
          "ticks": 66240,
          "time": 41.4,
          "velocity": 0.84251968503937
        },
        {
          "duration": 0.29999999999999716,
          "durationTicks": 480,
          "midi": 60,
          "name": "C4",
          "ticks": 66240,
          "time": 41.4,
          "velocity": 0.84251968503937
        },
        {
          "duration": 0.29999999999999716,
          "durationTicks": 480,
          "midi": 66,
          "name": "F#4",
          "ticks": 66240,
          "time": 41.4,
          "velocity": 0.84251968503937
        },
        {
          "duration": 0.29999999999999716,
          "durationTicks": 480,
          "midi": 69,
          "name": "A4",
          "ticks": 66240,
          "time": 41.4,
          "velocity": 0.84251968503937
        },
        {
          "duration": 0.29999999999999716,
          "durationTicks": 480,
          "midi": 75,
          "name": "D#5",
          "ticks": 66720,
          "time": 41.699999999999996,
          "velocity": 0.6377952755905512
        },
        {
          "duration": 0.29999999999999716,
          "durationTicks": 480,
          "midi": 57,
          "name": "A3",
          "ticks": 66720,
          "time": 41.699999999999996,
          "velocity": 0.7874015748031497
        },
        {
          "duration": 0.29999999999999716,
          "durationTicks": 480,
          "midi": 60,
          "name": "C4",
          "ticks": 66720,
          "time": 41.699999999999996,
          "velocity": 0.7874015748031497
        },
        {
          "duration": 0.29999999999999716,
          "durationTicks": 480,
          "midi": 66,
          "name": "F#4",
          "ticks": 66720,
          "time": 41.699999999999996,
          "velocity": 0.7874015748031497
        },
        {
          "duration": 0.29999999999999716,
          "durationTicks": 480,
          "midi": 69,
          "name": "A4",
          "ticks": 66720,
          "time": 41.699999999999996,
          "velocity": 0.7874015748031497
        },
        {
          "duration": 0.3050000000000068,
          "durationTicks": 488,
          "midi": 75,
          "name": "D#5",
          "ticks": 67200,
          "time": 41.99999999999999,
          "velocity": 0.7637795275590551
        },
        {
          "duration": 0.30000000000000426,
          "durationTicks": 480,
          "midi": 55,
          "name": "G3",
          "ticks": 67200,
          "time": 41.99999999999999,
          "velocity": 0.7244094488188977
        },
        {
          "duration": 0.30000000000000426,
          "durationTicks": 480,
          "midi": 59,
          "name": "B3",
          "ticks": 67200,
          "time": 41.99999999999999,
          "velocity": 0.7244094488188977
        },
        {
          "duration": 0.30000000000000426,
          "durationTicks": 480,
          "midi": 63,
          "name": "D#4",
          "ticks": 67200,
          "time": 41.99999999999999,
          "velocity": 0.7244094488188977
        },
        {
          "duration": 0.30000000000000426,
          "durationTicks": 480,
          "midi": 66,
          "name": "F#4",
          "ticks": 67200,
          "time": 41.99999999999999,
          "velocity": 0.7244094488188977
        },
        {
          "duration": 0.3049999999999997,
          "durationTicks": 488,
          "midi": 76,
          "name": "E5",
          "ticks": 67680,
          "time": 42.3,
          "velocity": 0.7952755905511811
        },
        {
          "duration": 0.29999999999999716,
          "durationTicks": 480,
          "midi": 55,
          "name": "G3",
          "ticks": 67680,
          "time": 42.3,
          "velocity": 0.7244094488188977
        },
        {
          "duration": 0.29999999999999716,
          "durationTicks": 480,
          "midi": 59,
          "name": "B3",
          "ticks": 67680,
          "time": 42.3,
          "velocity": 0.7244094488188977
        },
        {
          "duration": 0.29999999999999716,
          "durationTicks": 480,
          "midi": 64,
          "name": "E4",
          "ticks": 67680,
          "time": 42.3,
          "velocity": 0.7244094488188977
        },
        {
          "duration": 0.3050000000000068,
          "durationTicks": 488,
          "midi": 79,
          "name": "G5",
          "ticks": 68160,
          "time": 42.599999999999994,
          "velocity": 0.8818897637795275
        },
        {
          "duration": 0.30000000000000426,
          "durationTicks": 480,
          "midi": 55,
          "name": "G3",
          "ticks": 68160,
          "time": 42.599999999999994,
          "velocity": 0.8110236220472441
        },
        {
          "duration": 0.30000000000000426,
          "durationTicks": 480,
          "midi": 59,
          "name": "B3",
          "ticks": 68160,
          "time": 42.599999999999994,
          "velocity": 0.8110236220472441
        },
        {
          "duration": 0.30000000000000426,
          "durationTicks": 480,
          "midi": 64,
          "name": "E4",
          "ticks": 68160,
          "time": 42.599999999999994,
          "velocity": 0.8110236220472441
        },
        {
          "duration": 0.3049999999999997,
          "durationTicks": 488,
          "midi": 71,
          "name": "B4",
          "ticks": 68640,
          "time": 42.9,
          "velocity": 0.6062992125984252
        },
        {
          "duration": 0.29999999999999716,
          "durationTicks": 480,
          "midi": 55,
          "name": "G3",
          "ticks": 68640,
          "time": 42.9,
          "velocity": 0.8188976377952756
        },
        {
          "duration": 0.29999999999999716,
          "durationTicks": 480,
          "midi": 59,
          "name": "B3",
          "ticks": 68640,
          "time": 42.9,
          "velocity": 0.8188976377952756
        },
        {
          "duration": 0.29999999999999716,
          "durationTicks": 480,
          "midi": 64,
          "name": "E4",
          "ticks": 68640,
          "time": 42.9,
          "velocity": 0.8188976377952756
        },
        {
          "duration": 0.3050000000000068,
          "durationTicks": 488,
          "midi": 74,
          "name": "D5",
          "ticks": 69120,
          "time": 43.199999999999996,
          "velocity": 0.8110236220472441
        },
        {
          "duration": 0.29999999999999716,
          "durationTicks": 480,
          "midi": 57,
          "name": "A3",
          "ticks": 69120,
          "time": 43.199999999999996,
          "velocity": 0.7874015748031497
        },
        {
          "duration": 0.29999999999999716,
          "durationTicks": 480,
          "midi": 60,
          "name": "C4",
          "ticks": 69120,
          "time": 43.199999999999996,
          "velocity": 0.7874015748031497
        },
        {
          "duration": 0.29999999999999716,
          "durationTicks": 480,
          "midi": 64,
          "name": "E4",
          "ticks": 69120,
          "time": 43.199999999999996,
          "velocity": 0.7874015748031497
        },
        {
          "duration": 0.3050000000000068,
          "durationTicks": 488,
          "midi": 72,
          "name": "C5",
          "ticks": 69600,
          "time": 43.49999999999999,
          "velocity": 0.7165354330708661
        },
        {
          "duration": 0.30000000000000426,
          "durationTicks": 480,
          "midi": 57,
          "name": "A3",
          "ticks": 69600,
          "time": 43.49999999999999,
          "velocity": 0.7716535433070866
        },
        {
          "duration": 0.30000000000000426,
          "durationTicks": 480,
          "midi": 60,
          "name": "C4",
          "ticks": 69600,
          "time": 43.49999999999999,
          "velocity": 0.7716535433070866
        },
        {
          "duration": 0.30000000000000426,
          "durationTicks": 480,
          "midi": 64,
          "name": "E4",
          "ticks": 69600,
          "time": 43.49999999999999,
          "velocity": 0.7716535433070866
        },
        {
          "duration": 0.20187500000000114,
          "durationTicks": 323,
          "midi": 76,
          "name": "E5",
          "ticks": 70080,
          "time": 43.8,
          "velocity": 0.7795275590551181
        },
        {
          "duration": 0.29999999999999716,
          "durationTicks": 480,
          "midi": 45,
          "name": "A2",
          "ticks": 70080,
          "time": 43.8,
          "velocity": 0.6929133858267716
        },
        {
          "duration": 0.2012500000000017,
          "durationTicks": 322,
          "midi": 64,
          "name": "E4",
          "ticks": 70399,
          "time": 43.99937499999999,
          "velocity": 0.5511811023622047
        },
        {
          "duration": 0.30000000000000426,
          "durationTicks": 480,
          "midi": 52,
          "name": "E3",
          "ticks": 70560,
          "time": 44.099999999999994,
          "velocity": 0.9921259842519685
        },
        {
          "duration": 0.30000000000000426,
          "durationTicks": 480,
          "midi": 54,
          "name": "F#3",
          "ticks": 70560,
          "time": 44.099999999999994,
          "velocity": 0.9921259842519685
        },
        {
          "duration": 0.30000000000000426,
          "durationTicks": 480,
          "midi": 60,
          "name": "C4",
          "ticks": 70560,
          "time": 44.099999999999994,
          "velocity": 0.9921259842519685
        },
        {
          "duration": 0.20374999999999943,
          "durationTicks": 326,
          "midi": 69,
          "name": "A4",
          "ticks": 70718,
          "time": 44.19875,
          "velocity": 0.8110236220472441
        },
        {
          "duration": 0.916249999999998,
          "durationTicks": 1466,
          "midi": 66,
          "name": "F#4",
          "ticks": 71040,
          "time": 44.4,
          "velocity": 0.6141732283464567
        },
        {
          "duration": 0.29999999999999716,
          "durationTicks": 480,
          "midi": 47,
          "name": "B2",
          "ticks": 71040,
          "time": 44.4,
          "velocity": 0.6692913385826772
        },
        {
          "duration": 0.29999999999999716,
          "durationTicks": 480,
          "midi": 52,
          "name": "E3",
          "ticks": 71040,
          "time": 44.4,
          "velocity": 0.6692913385826772
        },
        {
          "duration": 0.29999999999999716,
          "durationTicks": 480,
          "midi": 59,
          "name": "B3",
          "ticks": 71040,
          "time": 44.4,
          "velocity": 0.6692913385826772
        },
        {
          "duration": 0.29999999999999716,
          "durationTicks": 480,
          "midi": 47,
          "name": "B2",
          "ticks": 71520,
          "time": 44.699999999999996,
          "velocity": 0.6614173228346457
        },
        {
          "duration": 0.29999999999999716,
          "durationTicks": 480,
          "midi": 52,
          "name": "E3",
          "ticks": 71520,
          "time": 44.699999999999996,
          "velocity": 0.6614173228346457
        },
        {
          "duration": 0.29999999999999716,
          "durationTicks": 480,
          "midi": 59,
          "name": "B3",
          "ticks": 71520,
          "time": 44.699999999999996,
          "velocity": 0.6614173228346457
        },
        {
          "duration": 0.30000000000000426,
          "durationTicks": 480,
          "midi": 48,
          "name": "C3",
          "ticks": 72000,
          "time": 44.99999999999999,
          "velocity": 0.6299212598425197
        },
        {
          "duration": 0.30000000000000426,
          "durationTicks": 480,
          "midi": 52,
          "name": "E3",
          "ticks": 72000,
          "time": 44.99999999999999,
          "velocity": 0.6299212598425197
        },
        {
          "duration": 0.30000000000000426,
          "durationTicks": 480,
          "midi": 57,
          "name": "A3",
          "ticks": 72000,
          "time": 44.99999999999999,
          "velocity": 0.6299212598425197
        },
        {
          "duration": 0.3049999999999997,
          "durationTicks": 488,
          "midi": 69,
          "name": "A4",
          "ticks": 72480,
          "time": 45.3,
          "velocity": 0.6929133858267716
        },
        {
          "duration": 0.29999999999999716,
          "durationTicks": 480,
          "midi": 48,
          "name": "C3",
          "ticks": 72480,
          "time": 45.3,
          "velocity": 0.7007874015748031
        },
        {
          "duration": 0.29999999999999716,
          "durationTicks": 480,
          "midi": 52,
          "name": "E3",
          "ticks": 72480,
          "time": 45.3,
          "velocity": 0.7007874015748031
        },
        {
          "duration": 0.29999999999999716,
          "durationTicks": 480,
          "midi": 57,
          "name": "A3",
          "ticks": 72480,
          "time": 45.3,
          "velocity": 0.7007874015748031
        },
        {
          "duration": 1.708750000000002,
          "durationTicks": 2734,
          "midi": 66,
          "name": "F#4",
          "ticks": 72960,
          "time": 45.599999999999994,
          "velocity": 0.6141732283464567
        },
        {
          "duration": 0.30000000000000426,
          "durationTicks": 480,
          "midi": 47,
          "name": "B2",
          "ticks": 72960,
          "time": 45.599999999999994,
          "velocity": 0.7165354330708661
        },
        {
          "duration": 0.30000000000000426,
          "durationTicks": 480,
          "midi": 52,
          "name": "E3",
          "ticks": 72960,
          "time": 45.599999999999994,
          "velocity": 0.7165354330708661
        },
        {
          "duration": 0.30000000000000426,
          "durationTicks": 480,
          "midi": 59,
          "name": "B3",
          "ticks": 72960,
          "time": 45.599999999999994,
          "velocity": 0.7165354330708661
        },
        {
          "duration": 0.29999999999999716,
          "durationTicks": 480,
          "midi": 47,
          "name": "B2",
          "ticks": 73440,
          "time": 45.9,
          "velocity": 0.6929133858267716
        },
        {
          "duration": 0.29999999999999716,
          "durationTicks": 480,
          "midi": 52,
          "name": "E3",
          "ticks": 73440,
          "time": 45.9,
          "velocity": 0.6929133858267716
        },
        {
          "duration": 0.29999999999999716,
          "durationTicks": 480,
          "midi": 59,
          "name": "B3",
          "ticks": 73440,
          "time": 45.9,
          "velocity": 0.6929133858267716
        },
        {
          "duration": 0.29999999999999716,
          "durationTicks": 480,
          "midi": 47,
          "name": "B2",
          "ticks": 73920,
          "time": 46.199999999999996,
          "velocity": 0.6771653543307087
        },
        {
          "duration": 0.29999999999999716,
          "durationTicks": 480,
          "midi": 52,
          "name": "E3",
          "ticks": 73920,
          "time": 46.199999999999996,
          "velocity": 0.6771653543307087
        },
        {
          "duration": 0.29999999999999716,
          "durationTicks": 480,
          "midi": 59,
          "name": "B3",
          "ticks": 73920,
          "time": 46.199999999999996,
          "velocity": 0.6771653543307087
        },
        {
          "duration": 0.30000000000000426,
          "durationTicks": 480,
          "midi": 47,
          "name": "B2",
          "ticks": 74400,
          "time": 46.49999999999999,
          "velocity": 0.6614173228346457
        },
        {
          "duration": 0.30000000000000426,
          "durationTicks": 480,
          "midi": 52,
          "name": "E3",
          "ticks": 74400,
          "time": 46.49999999999999,
          "velocity": 0.6614173228346457
        },
        {
          "duration": 0.30000000000000426,
          "durationTicks": 480,
          "midi": 59,
          "name": "B3",
          "ticks": 74400,
          "time": 46.49999999999999,
          "velocity": 0.6614173228346457
        },
        {
          "duration": 0.29999999999999716,
          "durationTicks": 480,
          "midi": 48,
          "name": "C3",
          "ticks": 74880,
          "time": 46.8,
          "velocity": 0.6692913385826772
        },
        {
          "duration": 0.29999999999999716,
          "durationTicks": 480,
          "midi": 52,
          "name": "E3",
          "ticks": 74880,
          "time": 46.8,
          "velocity": 0.6692913385826772
        },
        {
          "duration": 0.29999999999999716,
          "durationTicks": 480,
          "midi": 57,
          "name": "A3",
          "ticks": 74880,
          "time": 46.8,
          "velocity": 0.6692913385826772
        },
        {
          "duration": 0.30000000000000426,
          "durationTicks": 480,
          "midi": 48,
          "name": "C3",
          "ticks": 75360,
          "time": 47.099999999999994,
          "velocity": 0.6614173228346457
        },
        {
          "duration": 0.30000000000000426,
          "durationTicks": 480,
          "midi": 52,
          "name": "E3",
          "ticks": 75360,
          "time": 47.099999999999994,
          "velocity": 0.6614173228346457
        },
        {
          "duration": 0.30000000000000426,
          "durationTicks": 480,
          "midi": 57,
          "name": "A3",
          "ticks": 75360,
          "time": 47.099999999999994,
          "velocity": 0.6614173228346457
        },
        {
          "duration": 0.056250000000005684,
          "durationTicks": 90,
          "midi": 71,
          "name": "B4",
          "ticks": 75750,
          "time": 47.34374999999999,
          "velocity": 0.48031496062992124
        },
        {
          "duration": 0.5787499999999994,
          "durationTicks": 926,
          "midi": 69,
          "name": "A4",
          "ticks": 75840,
          "time": 47.4,
          "velocity": 0.48031496062992124
        },
        {
          "duration": 0.29999999999999716,
          "durationTicks": 480,
          "midi": 48,
          "name": "C3",
          "ticks": 75840,
          "time": 47.4,
          "velocity": 0.49606299212598426
        },
        {
          "duration": 0.29999999999999716,
          "durationTicks": 480,
          "midi": 52,
          "name": "E3",
          "ticks": 75840,
          "time": 47.4,
          "velocity": 0.49606299212598426
        },
        {
          "duration": 0.29999999999999716,
          "durationTicks": 480,
          "midi": 57,
          "name": "A3",
          "ticks": 75840,
          "time": 47.4,
          "velocity": 0.49606299212598426
        },
        {
          "duration": 0.29999999999999716,
          "durationTicks": 480,
          "midi": 48,
          "name": "C3",
          "ticks": 76320,
          "time": 47.699999999999996,
          "velocity": 0.5039370078740157
        },
        {
          "duration": 0.29999999999999716,
          "durationTicks": 480,
          "midi": 52,
          "name": "E3",
          "ticks": 76320,
          "time": 47.699999999999996,
          "velocity": 0.5039370078740157
        },
        {
          "duration": 0.29999999999999716,
          "durationTicks": 480,
          "midi": 57,
          "name": "A3",
          "ticks": 76320,
          "time": 47.699999999999996,
          "velocity": 0.5039370078740157
        },
        {
          "duration": 2.2943750000000023,
          "durationTicks": 3671,
          "midi": 66,
          "name": "F#4",
          "ticks": 76800,
          "time": 47.99999999999999,
          "velocity": 0.4094488188976378
        },
        {
          "duration": 0.30000000000000426,
          "durationTicks": 480,
          "midi": 47,
          "name": "B2",
          "ticks": 76800,
          "time": 47.99999999999999,
          "velocity": 0.5039370078740157
        },
        {
          "duration": 0.30000000000000426,
          "durationTicks": 480,
          "midi": 52,
          "name": "E3",
          "ticks": 76800,
          "time": 47.99999999999999,
          "velocity": 0.5039370078740157
        },
        {
          "duration": 0.30000000000000426,
          "durationTicks": 480,
          "midi": 59,
          "name": "B3",
          "ticks": 76800,
          "time": 47.99999999999999,
          "velocity": 0.5039370078740157
        },
        {
          "duration": 0.29999999999999716,
          "durationTicks": 480,
          "midi": 47,
          "name": "B2",
          "ticks": 77280,
          "time": 48.3,
          "velocity": 0.4881889763779528
        },
        {
          "duration": 0.29999999999999716,
          "durationTicks": 480,
          "midi": 52,
          "name": "E3",
          "ticks": 77280,
          "time": 48.3,
          "velocity": 0.4881889763779528
        },
        {
          "duration": 0.29999999999999716,
          "durationTicks": 480,
          "midi": 59,
          "name": "B3",
          "ticks": 77280,
          "time": 48.3,
          "velocity": 0.4881889763779528
        },
        {
          "duration": 0.30000000000000426,
          "durationTicks": 480,
          "midi": 47,
          "name": "B2",
          "ticks": 77760,
          "time": 48.599999999999994,
          "velocity": 0.44881889763779526
        },
        {
          "duration": 0.30000000000000426,
          "durationTicks": 480,
          "midi": 52,
          "name": "E3",
          "ticks": 77760,
          "time": 48.599999999999994,
          "velocity": 0.44881889763779526
        },
        {
          "duration": 0.30000000000000426,
          "durationTicks": 480,
          "midi": 59,
          "name": "B3",
          "ticks": 77760,
          "time": 48.599999999999994,
          "velocity": 0.44881889763779526
        },
        {
          "duration": 0.29999999999999716,
          "durationTicks": 480,
          "midi": 47,
          "name": "B2",
          "ticks": 78240,
          "time": 48.9,
          "velocity": 0.4881889763779528
        },
        {
          "duration": 0.29999999999999716,
          "durationTicks": 480,
          "midi": 52,
          "name": "E3",
          "ticks": 78240,
          "time": 48.9,
          "velocity": 0.4881889763779528
        },
        {
          "duration": 0.29999999999999716,
          "durationTicks": 480,
          "midi": 59,
          "name": "B3",
          "ticks": 78240,
          "time": 48.9,
          "velocity": 0.4881889763779528
        },
        {
          "duration": 0.29999999999999716,
          "durationTicks": 480,
          "midi": 47,
          "name": "B2",
          "ticks": 78720,
          "time": 49.199999999999996,
          "velocity": 0.4409448818897638
        },
        {
          "duration": 0.29999999999999716,
          "durationTicks": 480,
          "midi": 51,
          "name": "D#3",
          "ticks": 78720,
          "time": 49.199999999999996,
          "velocity": 0.4409448818897638
        },
        {
          "duration": 0.29999999999999716,
          "durationTicks": 480,
          "midi": 59,
          "name": "B3",
          "ticks": 78720,
          "time": 49.199999999999996,
          "velocity": 0.4409448818897638
        },
        {
          "duration": 0.30000000000000426,
          "durationTicks": 480,
          "midi": 47,
          "name": "B2",
          "ticks": 79200,
          "time": 49.49999999999999,
          "velocity": 0.44881889763779526
        },
        {
          "duration": 0.30000000000000426,
          "durationTicks": 480,
          "midi": 51,
          "name": "D#3",
          "ticks": 79200,
          "time": 49.49999999999999,
          "velocity": 0.44881889763779526
        },
        {
          "duration": 0.30000000000000426,
          "durationTicks": 480,
          "midi": 59,
          "name": "B3",
          "ticks": 79200,
          "time": 49.49999999999999,
          "velocity": 0.44881889763779526
        },
        {
          "duration": 0.29999999999999716,
          "durationTicks": 480,
          "midi": 47,
          "name": "B2",
          "ticks": 79680,
          "time": 49.8,
          "velocity": 0.4409448818897638
        },
        {
          "duration": 0.29999999999999716,
          "durationTicks": 480,
          "midi": 51,
          "name": "D#3",
          "ticks": 79680,
          "time": 49.8,
          "velocity": 0.4409448818897638
        },
        {
          "duration": 0.29999999999999716,
          "durationTicks": 480,
          "midi": 57,
          "name": "A3",
          "ticks": 79680,
          "time": 49.8,
          "velocity": 0.4409448818897638
        },
        {
          "duration": 0.30000000000000426,
          "durationTicks": 480,
          "midi": 47,
          "name": "B2",
          "ticks": 80160,
          "time": 50.099999999999994,
          "velocity": 0.4881889763779528
        },
        {
          "duration": 0.30000000000000426,
          "durationTicks": 480,
          "midi": 51,
          "name": "D#3",
          "ticks": 80160,
          "time": 50.099999999999994,
          "velocity": 0.4881889763779528
        },
        {
          "duration": 0.30000000000000426,
          "durationTicks": 480,
          "midi": 57,
          "name": "A3",
          "ticks": 80160,
          "time": 50.099999999999994,
          "velocity": 0.4881889763779528
        },
        {
          "duration": 0.140625,
          "durationTicks": 225,
          "midi": 64,
          "name": "E4",
          "ticks": 80400,
          "time": 50.24999999999999,
          "velocity": 0.4330708661417323
        },
        {
          "duration": 1.7999999999999972,
          "durationTicks": 2880,
          "midi": 64,
          "name": "E4",
          "ticks": 80640,
          "time": 50.4,
          "velocity": 0.5748031496062992
        },
        {
          "duration": 0.29999999999999716,
          "durationTicks": 480,
          "midi": 48,
          "name": "C3",
          "ticks": 80640,
          "time": 50.4,
          "velocity": 0.4566929133858268
        },
        {
          "duration": 0.29999999999999716,
          "durationTicks": 480,
          "midi": 52,
          "name": "E3",
          "ticks": 80640,
          "time": 50.4,
          "velocity": 0.4566929133858268
        },
        {
          "duration": 0.29999999999999716,
          "durationTicks": 480,
          "midi": 55,
          "name": "G3",
          "ticks": 80640,
          "time": 50.4,
          "velocity": 0.4566929133858268
        },
        {
          "duration": 0.29999999999999716,
          "durationTicks": 480,
          "midi": 48,
          "name": "C3",
          "ticks": 81120,
          "time": 50.699999999999996,
          "velocity": 0.4566929133858268
        },
        {
          "duration": 0.29999999999999716,
          "durationTicks": 480,
          "midi": 52,
          "name": "E3",
          "ticks": 81120,
          "time": 50.699999999999996,
          "velocity": 0.4566929133858268
        },
        {
          "duration": 0.29999999999999716,
          "durationTicks": 480,
          "midi": 55,
          "name": "G3",
          "ticks": 81120,
          "time": 50.699999999999996,
          "velocity": 0.4566929133858268
        },
        {
          "duration": 0.30000000000000426,
          "durationTicks": 480,
          "midi": 48,
          "name": "C3",
          "ticks": 81600,
          "time": 50.99999999999999,
          "velocity": 0.4094488188976378
        },
        {
          "duration": 0.30000000000000426,
          "durationTicks": 480,
          "midi": 52,
          "name": "E3",
          "ticks": 81600,
          "time": 50.99999999999999,
          "velocity": 0.4094488188976378
        },
        {
          "duration": 0.30000000000000426,
          "durationTicks": 480,
          "midi": 55,
          "name": "G3",
          "ticks": 81600,
          "time": 50.99999999999999,
          "velocity": 0.4094488188976378
        },
        {
          "duration": 0.29999999999999716,
          "durationTicks": 480,
          "midi": 48,
          "name": "C3",
          "ticks": 82080,
          "time": 51.3,
          "velocity": 0.3937007874015748
        },
        {
          "duration": 0.29999999999999716,
          "durationTicks": 480,
          "midi": 52,
          "name": "E3",
          "ticks": 82080,
          "time": 51.3,
          "velocity": 0.3937007874015748
        },
        {
          "duration": 0.29999999999999716,
          "durationTicks": 480,
          "midi": 55,
          "name": "G3",
          "ticks": 82080,
          "time": 51.3,
          "velocity": 0.3937007874015748
        },
        {
          "duration": 0.30000000000000426,
          "durationTicks": 480,
          "midi": 48,
          "name": "C3",
          "ticks": 82560,
          "time": 51.599999999999994,
          "velocity": 0.47244094488188976
        },
        {
          "duration": 0.30000000000000426,
          "durationTicks": 480,
          "midi": 52,
          "name": "E3",
          "ticks": 82560,
          "time": 51.599999999999994,
          "velocity": 0.47244094488188976
        },
        {
          "duration": 0.30000000000000426,
          "durationTicks": 480,
          "midi": 58,
          "name": "A#3",
          "ticks": 82560,
          "time": 51.599999999999994,
          "velocity": 0.47244094488188976
        },
        {
          "duration": 0.29999999999999716,
          "durationTicks": 480,
          "midi": 48,
          "name": "C3",
          "ticks": 83040,
          "time": 51.9,
          "velocity": 0.4094488188976378
        },
        {
          "duration": 0.29999999999999716,
          "durationTicks": 480,
          "midi": 52,
          "name": "E3",
          "ticks": 83040,
          "time": 51.9,
          "velocity": 0.4094488188976378
        },
        {
          "duration": 0.29999999999999716,
          "durationTicks": 480,
          "midi": 58,
          "name": "A#3",
          "ticks": 83040,
          "time": 51.9,
          "velocity": 0.4094488188976378
        },
        {
          "duration": 0.6000000000000014,
          "durationTicks": 960,
          "midi": 66,
          "name": "F#4",
          "ticks": 83520,
          "time": 52.199999999999996,
          "velocity": 0.5275590551181102
        },
        {
          "duration": 0.29999999999999716,
          "durationTicks": 480,
          "midi": 48,
          "name": "C3",
          "ticks": 83520,
          "time": 52.199999999999996,
          "velocity": 0.4094488188976378
        },
        {
          "duration": 0.29999999999999716,
          "durationTicks": 480,
          "midi": 52,
          "name": "E3",
          "ticks": 83520,
          "time": 52.199999999999996,
          "velocity": 0.4094488188976378
        },
        {
          "duration": 0.29999999999999716,
          "durationTicks": 480,
          "midi": 57,
          "name": "A3",
          "ticks": 83520,
          "time": 52.199999999999996,
          "velocity": 0.4094488188976378
        },
        {
          "duration": 0.30000000000000426,
          "durationTicks": 480,
          "midi": 48,
          "name": "C3",
          "ticks": 84000,
          "time": 52.49999999999999,
          "velocity": 0.3779527559055118
        },
        {
          "duration": 0.30000000000000426,
          "durationTicks": 480,
          "midi": 52,
          "name": "E3",
          "ticks": 84000,
          "time": 52.49999999999999,
          "velocity": 0.3779527559055118
        },
        {
          "duration": 0.30000000000000426,
          "durationTicks": 480,
          "midi": 57,
          "name": "A3",
          "ticks": 84000,
          "time": 52.49999999999999,
          "velocity": 0.3779527559055118
        },
        {
          "duration": 1.7999999999999972,
          "durationTicks": 2880,
          "midi": 64,
          "name": "E4",
          "ticks": 84480,
          "time": 52.8,
          "velocity": 0.47244094488188976
        },
        {
          "duration": 0.29999999999999716,
          "durationTicks": 480,
          "midi": 47,
          "name": "B2",
          "ticks": 84480,
          "time": 52.8,
          "velocity": 0.4330708661417323
        },
        {
          "duration": 0.29999999999999716,
          "durationTicks": 480,
          "midi": 52,
          "name": "E3",
          "ticks": 84480,
          "time": 52.8,
          "velocity": 0.4330708661417323
        },
        {
          "duration": 0.29999999999999716,
          "durationTicks": 480,
          "midi": 57,
          "name": "A3",
          "ticks": 84480,
          "time": 52.8,
          "velocity": 0.4330708661417323
        },
        {
          "duration": 0.30000000000000426,
          "durationTicks": 480,
          "midi": 47,
          "name": "B2",
          "ticks": 84960,
          "time": 53.099999999999994,
          "velocity": 0.4094488188976378
        },
        {
          "duration": 0.30000000000000426,
          "durationTicks": 480,
          "midi": 52,
          "name": "E3",
          "ticks": 84960,
          "time": 53.099999999999994,
          "velocity": 0.4094488188976378
        },
        {
          "duration": 0.30000000000000426,
          "durationTicks": 480,
          "midi": 57,
          "name": "A3",
          "ticks": 84960,
          "time": 53.099999999999994,
          "velocity": 0.4094488188976378
        },
        {
          "duration": 0.29999999999999716,
          "durationTicks": 480,
          "midi": 47,
          "name": "B2",
          "ticks": 85440,
          "time": 53.4,
          "velocity": 0.3858267716535433
        },
        {
          "duration": 0.29999999999999716,
          "durationTicks": 480,
          "midi": 52,
          "name": "E3",
          "ticks": 85440,
          "time": 53.4,
          "velocity": 0.3858267716535433
        },
        {
          "duration": 0.29999999999999716,
          "durationTicks": 480,
          "midi": 56,
          "name": "G#3",
          "ticks": 85440,
          "time": 53.4,
          "velocity": 0.3858267716535433
        },
        {
          "duration": 0.29999999999999716,
          "durationTicks": 480,
          "midi": 47,
          "name": "B2",
          "ticks": 85920,
          "time": 53.699999999999996,
          "velocity": 0.4015748031496063
        },
        {
          "duration": 0.29999999999999716,
          "durationTicks": 480,
          "midi": 52,
          "name": "E3",
          "ticks": 85920,
          "time": 53.699999999999996,
          "velocity": 0.4015748031496063
        },
        {
          "duration": 0.29999999999999716,
          "durationTicks": 480,
          "midi": 56,
          "name": "G#3",
          "ticks": 85920,
          "time": 53.699999999999996,
          "velocity": 0.4015748031496063
        },
        {
          "duration": 0.30000000000000426,
          "durationTicks": 480,
          "midi": 47,
          "name": "B2",
          "ticks": 86400,
          "time": 53.99999999999999,
          "velocity": 0.4094488188976378
        },
        {
          "duration": 0.30000000000000426,
          "durationTicks": 480,
          "midi": 52,
          "name": "E3",
          "ticks": 86400,
          "time": 53.99999999999999,
          "velocity": 0.4094488188976378
        },
        {
          "duration": 0.30000000000000426,
          "durationTicks": 480,
          "midi": 55,
          "name": "G3",
          "ticks": 86400,
          "time": 53.99999999999999,
          "velocity": 0.4094488188976378
        },
        {
          "duration": 0.29999999999999716,
          "durationTicks": 480,
          "midi": 47,
          "name": "B2",
          "ticks": 86880,
          "time": 54.3,
          "velocity": 0.3858267716535433
        },
        {
          "duration": 0.29999999999999716,
          "durationTicks": 480,
          "midi": 52,
          "name": "E3",
          "ticks": 86880,
          "time": 54.3,
          "velocity": 0.3858267716535433
        },
        {
          "duration": 0.29999999999999716,
          "durationTicks": 480,
          "midi": 55,
          "name": "G3",
          "ticks": 86880,
          "time": 54.3,
          "velocity": 0.3858267716535433
        },
        {
          "duration": 0.6000000000000014,
          "durationTicks": 960,
          "midi": 66,
          "name": "F#4",
          "ticks": 87360,
          "time": 54.599999999999994,
          "velocity": 0.49606299212598426
        },
        {
          "duration": 0.30000000000000426,
          "durationTicks": 480,
          "midi": 47,
          "name": "B2",
          "ticks": 87360,
          "time": 54.599999999999994,
          "velocity": 0.3937007874015748
        },
        {
          "duration": 0.30000000000000426,
          "durationTicks": 480,
          "midi": 52,
          "name": "E3",
          "ticks": 87360,
          "time": 54.599999999999994,
          "velocity": 0.3937007874015748
        },
        {
          "duration": 0.30000000000000426,
          "durationTicks": 480,
          "midi": 55,
          "name": "G3",
          "ticks": 87360,
          "time": 54.599999999999994,
          "velocity": 0.3937007874015748
        },
        {
          "duration": 0.29999999999999716,
          "durationTicks": 480,
          "midi": 47,
          "name": "B2",
          "ticks": 87840,
          "time": 54.9,
          "velocity": 0.3858267716535433
        },
        {
          "duration": 0.29999999999999716,
          "durationTicks": 480,
          "midi": 52,
          "name": "E3",
          "ticks": 87840,
          "time": 54.9,
          "velocity": 0.3858267716535433
        },
        {
          "duration": 0.29999999999999716,
          "durationTicks": 480,
          "midi": 55,
          "name": "G3",
          "ticks": 87840,
          "time": 54.9,
          "velocity": 0.3858267716535433
        },
        {
          "duration": 1.2000000000000028,
          "durationTicks": 1920,
          "midi": 64,
          "name": "E4",
          "ticks": 88320,
          "time": 55.199999999999996,
          "velocity": 0.4645669291338583
        },
        {
          "duration": 1.2000000000000028,
          "durationTicks": 1920,
          "midi": 46,
          "name": "A#2",
          "ticks": 88320,
          "time": 55.199999999999996,
          "velocity": 0.3779527559055118
        },
        {
          "duration": 1.2000000000000028,
          "durationTicks": 1920,
          "midi": 48,
          "name": "C3",
          "ticks": 88320,
          "time": 55.199999999999996,
          "velocity": 0.3779527559055118
        },
        {
          "duration": 1.2000000000000028,
          "durationTicks": 1920,
          "midi": 55,
          "name": "G3",
          "ticks": 88320,
          "time": 55.199999999999996,
          "velocity": 0.3779527559055118
        },
        {
          "duration": 1.2237500000000026,
          "durationTicks": 1958,
          "midi": 52,
          "name": "E3",
          "ticks": 93120,
          "time": 58.199999999999996,
          "velocity": 0.25196850393700787
        },
        {
          "duration": 1.1999999999999957,
          "durationTicks": 1920,
          "midi": 54,
          "name": "F#3",
          "ticks": 93120,
          "time": 58.199999999999996,
          "velocity": 0.25196850393700787
        },
        {
          "duration": 1.1999999999999957,
          "durationTicks": 1920,
          "midi": 59,
          "name": "B3",
          "ticks": 93120,
          "time": 58.199999999999996,
          "velocity": 0.25196850393700787
        },
        {
          "duration": 1.2237500000000026,
          "durationTicks": 1958,
          "midi": 64,
          "name": "E4",
          "ticks": 93120,
          "time": 58.199999999999996,
          "velocity": 0.25196850393700787
        },
        {
          "duration": 1.1999999999999957,
          "durationTicks": 1920,
          "midi": 35,
          "name": "B1",
          "ticks": 93120,
          "time": 58.199999999999996,
          "velocity": 0.2992125984251969
        },
        {
          "duration": 1.1999999999999957,
          "durationTicks": 1920,
          "midi": 47,
          "name": "B2",
          "ticks": 93120,
          "time": 58.199999999999996,
          "velocity": 0.2992125984251969
        },
        {
          "duration": 1.2237500000000097,
          "durationTicks": 1958,
          "midi": 51,
          "name": "D#3",
          "ticks": 95040,
          "time": 59.39999999999999,
          "velocity": 0.2204724409448819
        },
        {
          "duration": 1.2237500000000097,
          "durationTicks": 1958,
          "midi": 54,
          "name": "F#3",
          "ticks": 95040,
          "time": 59.39999999999999,
          "velocity": 0.2204724409448819
        },
        {
          "duration": 1.2000000000000028,
          "durationTicks": 1920,
          "midi": 59,
          "name": "B3",
          "ticks": 95040,
          "time": 59.39999999999999,
          "velocity": 0.2204724409448819
        },
        {
          "duration": 1.2237500000000097,
          "durationTicks": 1958,
          "midi": 63,
          "name": "D#4",
          "ticks": 95040,
          "time": 59.39999999999999,
          "velocity": 0.2204724409448819
        },
        {
          "duration": 1.2237500000000097,
          "durationTicks": 1958,
          "midi": 35,
          "name": "B1",
          "ticks": 95040,
          "time": 59.39999999999999,
          "velocity": 0.28346456692913385
        },
        {
          "duration": 1.2237500000000097,
          "durationTicks": 1958,
          "midi": 42,
          "name": "F#2",
          "ticks": 95040,
          "time": 59.39999999999999,
          "velocity": 0.28346456692913385
        },
        {
          "duration": 1.2237500000000097,
          "durationTicks": 1958,
          "midi": 47,
          "name": "B2",
          "ticks": 95040,
          "time": 59.39999999999999,
          "velocity": 0.28346456692913385
        },
        {
          "duration": 3.4193750000000023,
          "durationTicks": 5471,
          "midi": 52,
          "name": "E3",
          "ticks": 96960,
          "time": 60.599999999999994,
          "velocity": 0.33070866141732286
        },
        {
          "duration": 3.4193750000000023,
          "durationTicks": 5471,
          "midi": 55,
          "name": "G3",
          "ticks": 96960,
          "time": 60.599999999999994,
          "velocity": 0.33070866141732286
        },
        {
          "duration": 3.4193750000000023,
          "durationTicks": 5471,
          "midi": 59,
          "name": "B3",
          "ticks": 96960,
          "time": 60.599999999999994,
          "velocity": 0.33070866141732286
        },
        {
          "duration": 3.4193750000000023,
          "durationTicks": 5471,
          "midi": 64,
          "name": "E4",
          "ticks": 96960,
          "time": 60.599999999999994,
          "velocity": 0.33070866141732286
        },
        {
          "duration": 3.4193750000000023,
          "durationTicks": 5471,
          "midi": 28,
          "name": "E1",
          "ticks": 96960,
          "time": 60.599999999999994,
          "velocity": 0.2440944881889764
        },
        {
          "duration": 3.4193750000000023,
          "durationTicks": 5471,
          "midi": 40,
          "name": "E2",
          "ticks": 96960,
          "time": 60.599999999999994,
          "velocity": 0.2440944881889764
        }
      ]
    }
  ]
}
